<?xml version="1.0" encoding="UTF-8" standalone="no"?><!-- Generator: Gravit.io --><svg xmlns="http://www.w3.org/2000/svg" xmlns:xlink="http://www.w3.org/1999/xlink" style="isolation:isolate" viewBox="0 0 2700 2300" width="2700pt" height="2300pt"><defs><clipPath id="_clipPath_THIGGtLSXkQEOADQUl6xMsFKMkseYXga"><rect width="2700" height="2300"/></clipPath></defs><g clip-path="url(#_clipPath_THIGGtLSXkQEOADQUl6xMsFKMkseYXga)"><clipPath id="_clipPath_rZzRm23BZLd7TEJbmgiQuMXcuK4TArFv"><path d=" M -404 -381 L -404 2756 L 3104 2756 L 3104 -381 L -404 -381 Z " fill="rgb(255,255,255)"/></clipPath><g clip-path="url(#_clipPath_rZzRm23BZLd7TEJbmgiQuMXcuK4TArFv)"><path d=" M 2558.401 1113.679 C 2558.401 1708.438 2019.23 2190.579 1354.139 2190.579 C 689.049 2190.579 149.881 1708.438 149.881 1113.679 C 149.881 518.927 689.049 36.785 1354.139 36.785 C 2019.23 36.785 2558.401 518.927 2558.401 1113.679 Z " fill="rgb(85,105,220)"/><path d=" M 2348.447 2193.74 L 361.721 2193.74 C 333.037 2193.74 309.785 2172.949 309.785 2147.297 L 309.785 2147.297 C 309.785 2121.652 333.037 2100.853 361.721 2100.853 L 2348.447 2100.853 C 2377.125 2100.853 2400.383 2121.652 2400.383 2147.297 L 2400.383 2147.297 C 2400.383 2172.949 2377.125 2193.74 2348.447 2193.74 Z " fill="rgb(255,159,64)"/><path d=" M 2348.447 2183.247 L 361.722 2183.247 C 347.831 2183.247 335.562 2176.91 328.337 2167.303 C 328.908 2163.327 330.043 2159.499 331.668 2155.892 C 335.885 2156.888 340.316 2157.421 344.888 2157.421 L 2331.609 2157.421 C 2353.437 2157.421 2372.073 2145.375 2379.738 2128.318 C 2380.914 2128.592 2382.062 2128.906 2383.194 2129.243 C 2386.658 2134.552 2388.64 2140.725 2388.64 2147.297 C 2388.64 2167.122 2370.609 2183.247 2348.447 2183.247 Z " fill="rgb(195,111,80)"/><path d=" M 331.668 2155.892 C 328.284 2155.092 325.037 2153.994 321.96 2152.629 C 321.671 2150.888 321.52 2149.108 321.52 2147.297 C 321.52 2127.479 339.557 2111.346 361.722 2111.346 L 833.254 2111.346 L 833.254 2111.346 L 884.83 2111.346 L 884.83 2111.346 L 1818.02 2111.346 L 1818.02 2111.346 L 1866.746 2111.346 L 1866.746 2111.346 L 2348.447 2111.346 C 2361.663 2111.346 2373.406 2117.087 2380.738 2125.918 C 2380.431 2126.726 2380.098 2127.526 2379.738 2128.318 C 2375.529 2127.33 2371.117 2126.804 2366.566 2126.804 L 379.855 2126.804 C 365.536 2126.804 352.524 2132.011 343.104 2140.387 C 338.223 2144.779 334.302 2150.041 331.668 2155.892 Z " fill="rgb(255,212,169)"/><path d=" M 328.337 2167.303 C 325.086 2162.982 322.857 2157.994 321.96 2152.629 C 325.037 2153.994 328.284 2155.092 331.668 2155.892 C 330.043 2159.499 328.908 2163.327 328.337 2167.303 Z  M 2383.194 2129.243 C 2382.062 2128.906 2380.914 2128.592 2379.738 2128.318 C 2380.098 2127.526 2380.431 2126.726 2380.738 2125.918 C 2381.624 2126.984 2382.439 2128.09 2383.194 2129.243 Z " fill="rgb(228,190,176)"/><path d=" M 361.722 2111.346 C 339.557 2111.346 321.52 2127.479 321.52 2147.297 C 321.52 2167.122 339.557 2183.247 361.722 2183.247 L 2348.447 2183.247 C 2370.609 2183.247 2388.64 2167.122 2388.64 2147.297 C 2388.64 2127.479 2370.609 2111.346 2348.447 2111.346 L 361.722 2111.346 Z  M 2348.447 2204.241 L 361.722 2204.241 C 326.612 2204.241 298.046 2178.698 298.046 2147.297 C 298.046 2115.903 326.612 2090.36 361.722 2090.36 L 2348.447 2090.36 C 2383.553 2090.36 2412.117 2115.903 2412.117 2147.297 C 2412.117 2178.698 2383.553 2204.241 2348.447 2204.241 Z " fill="rgb(57,0,117)"/><path d=" M 2240.55 1895.96 L 2240.55 2006.586 C 2240.55 2008.5 2240.488 2010.461 2240.365 2012.374 C 2240.19 2014.868 2239.892 2017.417 2239.541 2019.864 L 2239.48 2019.864 C 2236.866 2036.647 2229.201 2052.049 2217.914 2064.793 C 2217.327 2065.593 2216.608 2066.385 2215.897 2067.13 C 2196.594 2087.741 2167.557 2100.853 2135.125 2100.853 C 2076.928 2100.853 2029.71 2058.637 2029.71 2006.586 L 2029.71 1895.96 C 2029.71 1887.412 2037.489 1880.448 2047.057 1880.448 L 2223.203 1880.448 C 2232.762 1880.448 2240.55 1887.412 2240.55 1895.96 Z " fill="rgb(247,196,20)"/><path d=" M 2047.048 1882.361 C 2038.664 1882.361 2031.841 1888.463 2031.841 1895.96 L 2031.841 2006.586 C 2031.841 2057.516 2078.173 2098.948 2135.125 2098.948 C 2165.75 2098.948 2194.595 2086.909 2214.266 2065.907 C 2214.932 2065.209 2215.599 2064.472 2216.143 2063.735 C 2227.57 2050.818 2234.875 2035.596 2237.366 2019.597 L 2237.647 2017.958 C 2237.901 2016.068 2238.103 2014.147 2238.243 2012.257 C 2238.357 2010.39 2238.41 2008.461 2238.41 2006.586 L 2238.41 1895.96 C 2238.41 1888.463 2231.587 1882.361 2223.203 1882.361 L 2047.048 1882.361 Z  M 2135.125 2102.767 C 2075.823 2102.767 2027.579 2059.617 2027.579 2006.586 L 2027.579 1895.96 C 2027.579 1886.353 2036.314 1878.542 2047.048 1878.542 L 2223.203 1878.542 C 2233.937 1878.542 2242.681 1886.353 2242.681 1895.96 L 2242.681 2006.586 C 2242.681 2008.531 2242.619 2010.531 2242.505 2012.484 C 2242.321 2015.041 2242.014 2017.629 2241.655 2020.107 L 2241.321 2021.769 C 2238.497 2037.839 2230.999 2053.092 2219.589 2065.978 C 2219.054 2066.707 2218.291 2067.57 2217.52 2068.37 C 2197.05 2090.227 2167.013 2102.767 2135.125 2102.767 Z " fill="rgb(57,0,117)"/><path d=" M 2111.052 2100.336 C 2107.43 2099.998 2103.852 2099.496 2100.344 2098.838 C 2101.186 2098.681 2102.019 2098.516 2102.843 2098.336 C 2105.536 2099.097 2108.281 2099.763 2111.052 2100.336 Z " fill="rgb(57,0,117)"/><path d=" M 2146.851 2098.273 C 2139.221 2096.634 2131.924 2094.266 2125.04 2091.238 C 2138.318 2085.404 2150.026 2077.161 2159.436 2067.13 C 2160.155 2066.385 2160.865 2065.593 2161.462 2064.793 C 2172.74 2052.049 2180.405 2036.647 2183.018 2019.864 L 2183.08 2019.864 C 2183.431 2017.417 2183.729 2014.868 2183.904 2012.374 C 2184.027 2010.461 2184.088 2008.5 2184.088 2006.586 L 2184.088 1895.96 C 2184.088 1890.102 2180.44 1884.996 2175.064 1882.361 L 2218.66 1882.361 C 2224.027 1884.996 2227.675 1890.102 2227.675 1895.96 L 2227.675 2006.586 C 2227.675 2008.5 2227.623 2010.461 2227.5 2012.374 C 2227.324 2014.868 2227.026 2017.417 2226.667 2019.864 L 2226.605 2019.864 C 2224.001 2036.647 2216.336 2052.049 2205.049 2064.793 C 2204.452 2065.593 2203.742 2066.385 2203.032 2067.13 C 2188.772 2082.353 2169.188 2093.497 2146.851 2098.273 Z " fill="rgb(190,137,49)"/><path d=" M 2122.26 2100.853 C 2118.489 2100.853 2114.744 2100.681 2111.052 2100.336 C 2108.281 2099.763 2105.536 2099.097 2102.843 2098.336 C 2104.194 2098.053 2105.527 2097.748 2106.851 2097.418 C 2113.867 2099.167 2121.172 2100.281 2128.697 2100.681 C 2126.566 2100.798 2124.417 2100.853 2122.26 2100.853 Z  M 2218.66 1882.361 L 2175.064 1882.361 C 2172.6 1881.146 2169.758 1880.448 2166.741 1880.448 L 2210.337 1880.448 C 2213.354 1880.448 2216.187 1881.146 2218.66 1882.361 Z " fill="rgb(57,0,117)"/><path d=" M 2159.296 1848.254 C 2160.05 1846.137 2159.91 1843.878 2159.962 1841.674 C 2159.971 1839.463 2159.883 1837.243 2159.787 1835.032 C 2159.576 1830.593 2159.243 1826.162 2158.866 1821.731 L 2157.735 1808.453 L 2157.428 1805.128 L 2157.27 1803.473 L 2157.033 1801.999 C 2156.691 1800.062 2156.077 1798.18 2155.121 1796.447 C 2151.464 1789.443 2143.396 1784.816 2135.283 1784.793 L 2133.766 1784.793 L 2131.916 1784.863 L 2128.188 1785.012 L 2120.734 1785.31 L 2105.816 1785.906 L 2046.171 1787.812 L 2038.717 1788.047 L 2034.99 1788.165 C 2034.762 1788.173 2034.516 1788.173 2034.262 1788.173 C 2033.139 1788.173 2031.824 1788.118 2030.666 1788.094 C 2024.737 1787.828 2018.8 1786.753 2013.205 1784.793 C 2002.085 1780.777 1992.324 1773.562 1986.141 1764.175 C 1983.045 1759.501 1980.782 1754.356 1979.484 1749.007 C 1978.16 1743.643 1978.011 1738.122 1978.677 1732.656 C 1979.984 1721.653 1985.957 1711.238 1994.613 1703.325 C 2003.356 1695.443 2015.143 1690.134 2027.623 1688.746 C 2029.175 1688.51 2030.736 1688.51 2032.297 1688.4 L 2034.586 1688.299 L 2036.454 1688.283 L 2043.909 1688.197 L 2058.818 1688.024 L 2118.471 1687.561 L 2178.116 1687.404 L 2237.761 1687.546 L 2252.67 1687.648 L 2256.397 1687.671 L 2258.265 1687.687 C 2258.546 1687.687 2258.844 1687.687 2259.116 1687.687 C 2259.431 1687.687 2259.721 1687.687 2259.905 1687.671 C 2260.765 1687.616 2261.624 1687.632 2262.475 1687.561 C 2263.317 1687.444 2264.158 1687.334 2265.009 1687.248 C 2271.701 1686.095 2277.857 1682.573 2282.014 1677.633 C 2286.198 1672.708 2288.162 1666.394 2287.513 1660.105 C 2286.908 1653.878 2283.523 1647.894 2278.243 1643.596 C 2275.612 1641.447 2272.525 1639.738 2269.184 1638.593 C 2268.368 1638.256 2267.509 1638.036 2266.64 1637.832 L 2265.342 1637.495 L 2264.018 1637.291 C 2263.132 1637.142 2262.247 1636.969 2261.335 1636.962 C 2260.361 1636.922 2259.712 1636.789 2258.318 1636.789 L 2228.491 1636.107 C 2208.609 1635.613 2188.728 1635.291 2168.846 1634.656 L 2139.019 1633.715 L 2124.11 1633.244 L 2122.242 1633.181 L 2119.927 1633.032 C 2118.375 1632.97 2116.849 1632.617 2115.323 1632.366 C 2112.306 1631.684 2109.394 1630.688 2106.719 1629.307 C 2101.387 1626.523 2097.002 1622.469 2094.187 1617.677 C 2091.372 1612.916 2090.056 1607.45 2090.565 1602.204 C 2090.951 1596.926 2093.126 1591.836 2096.529 1587.656 C 2098.283 1585.601 2100.291 1583.734 2102.562 1582.174 C 2104.878 1580.676 2107.351 1579.382 2109.999 1578.488 C 2112.648 1577.633 2115.384 1576.959 2118.173 1576.81 C 2118.831 1576.731 2119.489 1576.715 2120.155 1576.715 C 2120.453 1576.715 2120.76 1576.715 2121.067 1576.723 C 2121.374 1576.723 2121.681 1576.731 2121.988 1576.731 C 2122.093 1576.731 2122.207 1576.731 2122.313 1576.731 L 2126.04 1576.911 C 2127.408 1576.982 2128.636 1577.037 2129.82 1577.037 C 2130.89 1577.037 2131.933 1576.99 2133.021 1576.872 C 2135.248 1576.551 2137.502 1576.088 2139.598 1575.225 C 2143.834 1573.61 2147.667 1570.881 2150.368 1567.344 C 2151.762 1565.595 2152.858 1563.642 2153.613 1561.572 C 2154.472 1559.517 2154.832 1557.321 2155.051 1555.102 C 2155.446 1559.517 2154.577 1564.207 2152.104 1568.277 C 2149.754 1572.394 2145.983 1575.931 2141.387 1578.355 C 2139.098 1579.617 2136.529 1580.409 2133.915 1581.044 C 2131.319 1581.625 2128.416 1581.79 2126.04 1581.891 L 2122.313 1582.072 C 2121.19 1582.213 2120.102 1582.221 2119.024 1582.472 C 2116.858 1582.786 2114.823 1583.538 2112.902 1584.37 C 2110.982 1585.248 2109.263 1586.417 2107.693 1587.679 C 2106.184 1589.005 2104.843 1590.463 2103.738 1592.04 C 2101.624 1595.255 2100.493 1598.894 2100.616 1602.525 C 2100.677 1609.803 2105.737 1616.461 2112.692 1619.237 C 2114.428 1619.928 2116.226 1620.406 2118.059 1620.712 C 2118.883 1620.759 2119.69 1620.916 2120.515 1620.916 C 2120.62 1620.916 2120.725 1620.916 2120.839 1620.908 L 2122.242 1620.916 L 2124.11 1620.861 L 2139.019 1620.39 L 2168.846 1619.441 C 2188.728 1618.806 2208.609 1618.492 2228.491 1617.998 L 2258.318 1617.316 C 2258.607 1617.3 2258.949 1617.293 2259.317 1617.293 C 2260.352 1617.293 2261.642 1617.34 2262.747 1617.379 C 2264.325 1617.387 2265.895 1617.583 2267.465 1617.787 L 2269.815 1618.1 L 2272.13 1618.587 C 2273.683 1618.9 2275.217 1619.269 2276.708 1619.771 C 2282.733 1621.606 2288.364 1624.461 2293.24 1628.131 C 2303.001 1635.44 2309.736 1646.184 2311.21 1657.681 C 2312.814 1669.069 2309.517 1681.107 2301.948 1690.549 C 2294.503 1700.054 2282.874 1706.877 2270.061 1709.301 L 2265.22 1709.991 C 2263.606 1710.148 2261.975 1710.195 2260.344 1710.273 C 2259.458 1710.32 2258.879 1710.32 2258.265 1710.32 L 2256.397 1710.336 L 2252.67 1710.359 L 2237.761 1710.469 L 2178.116 1710.603 L 2118.471 1710.446 L 2058.818 1709.983 L 2043.909 1709.81 L 2036.454 1709.732 L 2034.586 1709.709 L 2033.148 1709.756 C 2032.236 1709.81 2031.297 1709.74 2030.394 1709.873 C 2023.115 1710.548 2016.046 1713.34 2010.574 1717.904 C 2005.198 1722.5 2001.295 1728.625 2000.164 1735.322 C 1999.568 1738.655 1999.401 1742.137 2000.041 1745.51 C 2000.673 1748.874 2001.883 1752.168 2003.672 1755.234 C 2007.224 1761.398 2013.301 1766.386 2020.423 1769.398 C 2024.018 1770.849 2027.895 1771.743 2031.867 1772.111 C 2032.92 1772.166 2033.744 1772.284 2034.99 1772.323 L 2038.717 1772.441 L 2046.171 1772.668 L 2105.816 1774.574 L 2120.734 1775.17 L 2128.188 1775.468 L 2131.916 1775.617 L 2133.792 1775.695 L 2136.002 1775.868 C 2141.861 1776.433 2147.509 1778.495 2152.008 1781.742 C 2154.279 1783.342 2156.296 1785.208 2157.91 1787.318 C 2159.567 1789.396 2160.874 1791.686 2161.769 1794.086 C 2162.725 1796.462 2163.216 1798.964 2163.347 1801.442 L 2163.409 1803.293 L 2163.365 1804.964 L 2163.277 1808.312 C 2163.137 1812.775 2162.997 1817.229 2162.769 1821.692 C 2162.514 1826.154 2162.216 1830.609 2161.804 1835.063 C 2161.576 1837.29 2161.365 1839.518 2161.023 1841.737 C 2160.62 1843.933 2160.392 1846.231 2159.296 1848.254 Z " fill="rgb(241,215,255)"/><path d=" M 2146.097 2098.43 C 2146.351 2098.383 2146.605 2098.328 2146.851 2098.273 C 2146.947 2098.289 2147.035 2098.312 2147.123 2098.328 C 2146.781 2098.367 2146.439 2098.399 2146.097 2098.43 Z  M 2110.806 2096.367 C 2065.553 2086.564 2031.841 2050.026 2031.841 2006.586 L 2031.841 1895.96 C 2031.841 1888.463 2038.664 1882.361 2047.048 1882.361 L 2075.077 1882.361 C 2069.701 1884.996 2066.053 1890.102 2066.053 1895.96 L 2066.053 2006.586 C 2066.053 2043.736 2090.1 2075.867 2125.04 2091.238 C 2120.471 2093.238 2115.717 2094.956 2110.806 2096.367 Z " fill="rgb(253,237,184)"/><path d=" M 2135.125 2100.853 C 2132.968 2100.853 2130.819 2100.798 2128.697 2100.681 C 2134.643 2100.359 2140.458 2099.598 2146.097 2098.43 C 2146.439 2098.399 2146.781 2098.367 2147.123 2098.328 C 2149.175 2098.767 2151.262 2099.144 2153.358 2099.473 C 2147.421 2100.375 2141.361 2100.853 2135.125 2100.853 Z  M 2106.851 2097.418 C 2062.37 2086.368 2029.71 2049.877 2029.71 2006.586 L 2029.71 1895.96 C 2029.71 1887.412 2037.489 1880.448 2047.057 1880.448 L 2083.4 1880.448 C 2080.383 1880.448 2077.55 1881.146 2075.077 1882.361 L 2047.048 1882.361 C 2038.664 1882.361 2031.841 1888.463 2031.841 1895.96 L 2031.841 2006.586 C 2031.841 2050.026 2065.553 2086.564 2110.806 2096.367 C 2109.5 2096.736 2108.184 2097.089 2106.851 2097.418 Z " fill="rgb(195,178,213)"/><path d=" M 2135.125 2098.948 C 2126.759 2098.948 2118.612 2098.053 2110.806 2096.367 C 2115.717 2094.956 2120.471 2093.238 2125.04 2091.238 C 2131.924 2094.266 2139.221 2096.634 2146.851 2098.273 C 2146.605 2098.328 2146.351 2098.383 2146.097 2098.43 C 2142.475 2098.775 2138.818 2098.948 2135.125 2098.948 Z " fill="rgb(235,219,193)"/><path d=" M 2128.697 2100.681 C 2121.172 2100.281 2113.867 2099.167 2106.851 2097.418 C 2108.184 2097.089 2109.5 2096.736 2110.806 2096.367 C 2118.612 2098.053 2126.759 2098.948 2135.125 2098.948 C 2138.818 2098.948 2142.475 2098.775 2146.097 2098.43 C 2140.458 2099.598 2134.643 2100.359 2128.697 2100.681 Z " fill="rgb(195,178,213)"/><path d=" M 2328.679 1965.162 L 2328.679 1980.667 C 2328.679 2003.026 2315.077 2023.636 2293.108 2034.365 L 2244.11 2059.327 C 2235.796 2063.57 2226.772 2065.327 2217.914 2064.793 C 2229.201 2052.049 2236.866 2036.647 2239.48 2019.864 L 2239.532 2019.864 C 2239.892 2017.417 2240.19 2014.868 2240.365 2012.374 L 2269.947 1997.293 C 2277.015 1993.842 2281.172 1987.521 2281.172 1980.667 L 2281.172 1965.162 C 2281.172 1954.802 2271.727 1946.364 2260.142 1946.364 L 2240.55 1946.364 L 2240.55 1903.873 L 2260.142 1903.873 C 2297.976 1903.873 2328.679 1931.33 2328.679 1965.162 Z " fill="rgb(247,196,20)"/><path d=" M 2241.321 2021.769 C 2238.708 2036.6 2232.122 2050.74 2222.15 2062.958 C 2229.412 2062.786 2236.559 2060.982 2243.058 2057.665 L 2292.047 2032.702 C 2313.341 2022.311 2326.548 2002.375 2326.548 1980.667 L 2326.548 1965.162 C 2326.548 1932.42 2296.757 1905.779 2260.142 1905.779 L 2242.681 1905.779 L 2242.681 1944.458 L 2260.142 1944.458 C 2272.911 1944.458 2283.303 1953.744 2283.303 1965.162 L 2283.303 1980.667 C 2283.303 1988.353 2278.699 1995.191 2270.973 1998.963 L 2242.418 2013.527 C 2242.233 2015.731 2241.97 2017.958 2241.655 2020.107 L 2241.321 2021.769 Z  M 2220.975 2066.793 C 2219.905 2066.793 2218.844 2066.762 2217.774 2066.699 L 2213.722 2066.456 L 2216.239 2063.609 C 2227.57 2050.818 2234.875 2035.596 2237.366 2019.597 L 2237.647 2017.958 C 2237.901 2016.068 2238.103 2014.147 2238.243 2012.257 L 2238.313 2011.229 L 2268.886 1995.638 C 2275.253 1992.525 2279.041 1986.933 2279.041 1980.667 L 2279.041 1965.162 C 2279.041 1955.845 2270.561 1948.27 2260.142 1948.27 L 2238.41 1948.27 L 2238.41 1901.967 L 2260.142 1901.967 C 2299.116 1901.967 2330.81 1930.31 2330.81 1965.162 L 2330.81 1980.667 C 2330.81 2003.779 2316.752 2024.993 2294.126 2036.035 L 2245.171 2060.982 C 2237.682 2064.801 2229.377 2066.793 2220.975 2066.793 Z " fill="rgb(57,0,117)"/><path d=" M 2239.541 2019.864 L 2239.585 2019.864 L 2239.541 2019.864 Z  M 2047.048 1891.898 C 2044.549 1891.898 2042.514 1893.725 2042.514 1895.96 L 2042.514 2006.586 C 2042.514 2052.253 2084.058 2089.411 2135.125 2089.411 C 2162.584 2089.411 2188.447 2078.612 2206.084 2059.782 C 2206.548 2059.296 2206.934 2058.88 2207.25 2058.465 C 2207.452 2058.198 2207.653 2057.931 2207.881 2057.688 C 2218.028 2046.222 2224.571 2032.6 2226.798 2018.287 C 2226.842 2017.966 2226.912 2017.652 2226.991 2017.338 C 2227.246 2015.464 2227.456 2013.535 2227.588 2011.645 C 2227.693 2010.029 2227.737 2008.288 2227.737 2006.586 L 2227.737 1895.96 C 2227.737 1893.725 2225.711 1891.898 2223.203 1891.898 L 2047.048 1891.898 Z  M 2135.125 2112.303 C 2069.938 2112.303 2016.906 2064.88 2016.906 2006.586 L 2016.906 1895.96 C 2016.906 1881.099 2030.429 1869.005 2047.048 1869.005 L 2223.203 1869.005 C 2239.822 1869.005 2253.345 1881.099 2253.345 1895.96 L 2253.345 2006.586 C 2253.345 2008.712 2253.292 2010.892 2253.152 2013.017 C 2252.959 2015.692 2252.652 2018.46 2252.231 2021.338 C 2252.179 2021.769 2252.082 2022.185 2251.977 2022.593 C 2248.978 2040.388 2240.795 2057.28 2228.254 2071.561 C 2227.517 2072.518 2226.649 2073.506 2225.632 2074.573 C 2203.198 2098.524 2170.179 2112.303 2135.125 2112.303 Z " fill="rgb(57,0,117)"/><path d=" M 2251.977 2022.593 C 2250.635 2030.537 2248.267 2038.294 2244.935 2045.728 L 2286.768 2024.412 C 2304.799 2015.605 2315.875 1998.885 2315.875 1980.667 L 2315.875 1965.162 C 2315.875 1937.682 2290.872 1915.323 2260.142 1915.323 L 2253.345 1915.323 L 2253.345 1934.914 L 2260.142 1934.914 C 2278.796 1934.914 2293.976 1948.481 2293.976 1965.162 L 2293.976 1980.667 C 2293.976 1991.725 2287.118 2001.944 2276.086 2007.339 L 2252.512 2019.37 C 2252.424 2020.021 2252.337 2020.672 2252.231 2021.338 C 2252.179 2021.769 2252.082 2022.185 2251.977 2022.593 Z  M 2220.975 2076.338 C 2219.677 2076.338 2218.37 2076.298 2217.055 2076.212 C 2212.31 2075.93 2208.136 2073.318 2206.206 2069.428 C 2204.286 2065.546 2204.926 2061.021 2207.881 2057.688 C 2218.028 2046.222 2224.571 2032.6 2226.798 2018.287 C 2226.842 2017.966 2226.912 2017.652 2226.991 2017.338 C 2227.246 2015.464 2227.456 2013.535 2227.588 2011.645 C 2227.868 2007.794 2230.289 2004.336 2234.025 2002.43 L 2263.606 1987.349 C 2266.658 1985.851 2268.368 1983.388 2268.368 1980.667 L 2268.368 1965.162 C 2268.368 1961.108 2264.676 1957.814 2260.142 1957.814 L 2240.541 1957.814 C 2233.472 1957.814 2227.737 1952.685 2227.737 1946.364 L 2227.737 1903.873 C 2227.737 1897.552 2233.472 1892.423 2240.541 1892.423 L 2260.142 1892.423 C 2305 1892.423 2341.484 1925.056 2341.484 1965.162 L 2341.484 1980.667 C 2341.484 2007.269 2325.294 2031.69 2299.238 2044.411 L 2250.451 2069.271 C 2241.356 2073.914 2231.236 2076.338 2220.975 2076.338 Z " fill="rgb(57,0,117)"/><path d=" M 513.588 1411.16 L 515.727 1420.877 L 601.524 1811.183 C 600.814 1774.558 624.09 1741.526 644.62 1709.81 C 655.048 1693.765 665.151 1676.48 671.298 1658.709 C 677.332 1641.432 679.639 1623.708 674.973 1606.14 C 669.483 1585.374 654.828 1567.65 646.041 1547.824 C 612.996 1473.304 667.562 1387.154 643.901 1309.788 C 634.298 1278.418 611.627 1250.436 581.266 1232.477 C 573.697 1228.007 564.366 1224.03 555.85 1226.775 C 540.704 1231.685 542.187 1250.93 544.932 1265.117 C 554.535 1315.043 543.169 1368.003 513.588 1411.16 Z " fill="rgb(48,206,82)"/><path d=" M 649.689 1677.539 C 645.734 1668.057 640.972 1658.858 635.429 1650.043 C 626.493 1635.856 615.741 1622.72 605.339 1610.015 C 591.299 1592.855 578.038 1576.653 569.11 1558.317 C 558.244 1536.013 554.403 1510.462 558.271 1486.378 C 558.867 1482.66 559.639 1478.951 560.411 1475.241 C 562.366 1465.791 564.383 1456.027 563.945 1445.675 C 563.489 1435.182 559.718 1422.775 551 1413.474 C 554.903 1406.91 558.411 1400.157 561.507 1393.264 C 564.647 1393.593 567.742 1394.362 570.733 1395.632 C 583.905 1401.279 590.272 1415.168 590.878 1428.178 C 591.43 1441.189 587.361 1453.949 585.274 1466.858 C 581.046 1493.169 585.168 1520.469 597.025 1544.812 C 613.495 1578.637 643.682 1605.49 663.94 1637.589 C 663.958 1637.612 663.967 1637.628 663.976 1637.652 C 661.827 1651.07 656.46 1664.544 649.689 1677.539 Z " fill="rgb(50,165,89)"/><path d=" M 535.285 1398.871 C 557.999 1357.204 565.971 1308.823 557.166 1263.219 C 554.315 1248.475 555.412 1238.766 560.095 1237.245 C 560.507 1237.112 561.077 1237.01 561.831 1237.01 C 564.059 1237.01 567.935 1237.927 574.416 1241.762 C 575.96 1242.672 577.477 1243.613 578.977 1244.586 C 571.873 1252.506 573.215 1266.921 575.399 1278.175 C 582.853 1316.721 577.793 1357.023 561.507 1393.264 C 560.253 1393.13 558.999 1393.068 557.736 1393.068 C 550.15 1393.068 542.415 1395.358 535.285 1398.871 Z " fill="rgb(162,233,177)"/><path d=" M 551 1413.474 C 547.221 1409.443 542.52 1405.992 536.749 1403.53 C 535.653 1403.059 534.53 1402.635 533.399 1402.259 C 534.039 1401.138 534.671 1400 535.285 1398.871 C 542.415 1395.358 550.15 1393.068 557.736 1393.068 C 558.999 1393.068 560.253 1393.13 561.507 1393.264 C 558.411 1400.157 554.903 1406.91 551 1413.474 Z " fill="rgb(163,214,180)"/><path d=" M 601.498 1822.319 C 594.719 1822.319 589.176 1817.464 589.062 1811.379 C 588.352 1773.978 609.488 1741.612 629.922 1710.312 L 633.877 1704.234 C 652.96 1674.841 671.334 1640.498 662.888 1608.689 C 659.915 1597.459 653.741 1586.895 647.207 1575.712 C 642.77 1568.12 638.183 1560.27 634.5 1551.949 C 615.819 1509.866 623.151 1464.983 630.237 1421.575 C 636.499 1383.249 642.401 1347.04 631.912 1312.753 C 623.134 1284.049 602.173 1258.177 574.416 1241.762 C 565.725 1236.618 561.726 1236.72 560.095 1237.245 C 555.412 1238.766 554.315 1248.475 557.166 1263.219 C 567.278 1315.615 555.254 1371.665 524.173 1416.995 C 520.586 1422.234 512.921 1423.873 507.063 1420.665 C 501.213 1417.45 499.371 1410.603 502.958 1405.365 C 530.926 1364.576 541.748 1314.149 532.645 1266.999 C 527.278 1239.206 533.662 1222.156 551.606 1216.329 C 567.681 1211.114 583.09 1220.211 588.15 1223.207 C 620.862 1242.547 645.559 1273.046 655.907 1306.879 C 667.773 1345.66 661.204 1385.884 654.855 1424.791 C 647.935 1467.164 641.402 1507.192 657.617 1543.738 C 660.836 1550.992 664.931 1557.995 669.264 1565.407 C 676.218 1577.311 683.41 1589.624 687.102 1603.545 C 697.565 1642.969 676.946 1682.213 655.398 1715.41 L 651.408 1721.527 C 632.693 1750.192 613.346 1779.82 613.943 1811.002 C 614.057 1817.151 608.575 1822.217 601.709 1822.319 L 601.498 1822.319 Z " fill="rgb(57,0,117)"/><path d=" M 627.58 1843.047 C 661.52 1785.357 660.354 1712.304 624.581 1655.501 C 604.366 1623.394 574.153 1596.541 557.701 1562.756 C 545.844 1538.405 541.73 1511.089 545.958 1484.801 C 548.027 1471.9 552.07 1459.125 551.509 1446.099 C 550.948 1433.08 544.546 1419.183 531.399 1413.568 C 515.149 1406.635 495.741 1414.807 482.305 1425.512 C 451.041 1450.404 435.971 1488.872 435.92 1526.304 C 435.867 1563.728 449.508 1600.274 468.191 1633.77 C 481.638 1657.885 498.258 1682.652 496.109 1709.536 C 494.136 1734.185 476.754 1755.281 464.147 1777.272 C 451.538 1799.262 444.041 1827.636 460.554 1847.446 L 627.58 1843.047 Z " fill="rgb(48,206,82)"/><path d=" M 484.997 1838.231 L 468.609 1838.231 C 456.326 1819.755 468.967 1793.247 475.21 1782.354 C 478.034 1777.436 481.068 1772.613 484.287 1767.508 C 495.355 1749.925 506.8 1731.746 508.519 1710.328 C 510.65 1683.648 497.267 1660.238 484.313 1637.605 C 482.629 1634.656 480.954 1631.723 479.323 1628.797 C 458.445 1591.373 448.317 1557.854 448.36 1526.312 C 448.412 1489.405 464.191 1454.827 490.575 1433.817 C 497.67 1428.171 507.773 1422.72 516.964 1422.187 C 515.412 1423.253 513.912 1424.359 512.491 1425.489 C 481.253 1450.381 466.157 1488.864 466.102 1526.32 C 466.047 1563.728 479.718 1600.298 498.38 1633.777 C 511.825 1657.877 528.461 1682.668 526.322 1709.52 C 524.348 1734.161 506.94 1755.266 494.32 1777.264 C 483.594 1796.023 476.561 1819.441 484.997 1838.231 Z " fill="rgb(162,233,177)"/><path d=" M 460.564 1858.575 C 456.77 1858.575 453.023 1857.03 450.583 1854.097 C 433.839 1834.012 434.747 1804.164 453.075 1772.198 C 456.111 1766.896 459.413 1761.657 462.602 1756.591 C 472.777 1740.435 482.384 1725.182 483.699 1708.744 C 485.339 1688.251 474.079 1668.567 462.162 1647.729 C 460.44 1644.718 458.722 1641.722 457.058 1638.734 C 434.413 1598.141 423.429 1561.36 423.48 1526.288 C 423.541 1482.496 441.962 1442.734 474.026 1417.199 C 494.732 1400.714 518.183 1395.601 536.749 1403.53 C 555.815 1411.662 563.296 1430.633 563.945 1445.675 C 564.383 1456.027 562.366 1465.791 560.411 1475.241 C 559.639 1478.951 558.867 1482.66 558.271 1486.378 C 554.403 1510.462 558.244 1536.013 569.11 1558.317 C 578.038 1576.653 591.299 1592.855 605.339 1610.015 C 615.741 1622.72 626.493 1635.856 635.429 1650.043 C 673.035 1709.771 674.28 1787.561 638.586 1848.231 C 635.394 1853.658 627.878 1855.752 621.783 1852.889 C 615.705 1850.034 613.373 1843.306 616.574 1837.863 C 648.418 1783.718 647.313 1714.281 613.741 1660.96 C 605.541 1647.933 595.692 1635.895 585.265 1623.151 C 571.04 1605.772 556.324 1587.797 546.291 1567.202 C 533.434 1540.781 529.058 1511.74 533.645 1483.217 C 534.285 1479.194 535.118 1475.194 535.942 1471.187 C 537.731 1462.56 539.415 1454.412 539.082 1446.53 C 538.731 1438.374 535.1 1427.48 526.041 1423.606 C 515.157 1418.964 500.134 1426.21 490.575 1433.817 C 464.191 1454.827 448.412 1489.405 448.36 1526.312 C 448.317 1557.854 458.445 1591.373 479.323 1628.797 C 480.954 1631.723 482.629 1634.656 484.313 1637.605 C 497.267 1660.238 510.65 1683.648 508.519 1710.328 C 506.8 1731.746 495.355 1749.925 484.287 1767.508 C 481.068 1772.613 478.034 1777.436 475.21 1782.354 C 468.671 1793.764 455.114 1822.303 470.529 1840.804 C 474.631 1845.729 473.5 1852.693 467.991 1856.371 C 465.759 1857.861 463.15 1858.575 460.564 1858.575 Z " fill="rgb(57,0,117)"/><path d=" M 525.611 2100.853 L 575.442 2100.853 C 624.353 2100.853 664.51 2066.268 666.335 2022.554 L 673.061 1861.563 C 673.596 1848.819 662.186 1838.231 647.926 1838.231 L 453.13 1838.231 C 438.868 1838.231 427.459 1848.819 427.992 1861.563 L 434.722 2022.554 C 436.55 2066.268 476.701 2100.853 525.611 2100.853 Z " fill="rgb(81,138,251)"/><path d=" M 659.52 1840.757 C 656.056 1839.141 652.118 1838.231 647.926 1838.231 L 644.059 1838.231 C 644.796 1836.773 645.515 1835.306 646.216 1833.84 C 651.452 1834.859 656.065 1837.33 659.52 1840.757 Z " fill="rgb(171,107,213)"/><path d=" M 616.363 1838.231 L 605.304 1838.231 C 601.007 1835.165 595.561 1833.322 589.606 1833.322 L 619.143 1833.322 C 618.31 1834.851 617.451 1836.365 616.574 1837.863 C 616.504 1837.988 616.433 1838.106 616.363 1838.231 Z " fill="rgb(51,144,93)"/><path d=" M 644.059 1838.231 L 616.363 1838.231 C 616.433 1838.106 616.504 1837.988 616.574 1837.863 C 617.451 1836.365 618.31 1834.851 619.143 1833.322 L 640.823 1833.322 C 642.673 1833.322 644.48 1833.502 646.216 1833.84 C 645.515 1835.306 644.796 1836.773 644.059 1838.231 Z " fill="rgb(57,0,117)"/><path d=" M 568.365 2095.944 L 527.374 2095.944 C 526.979 2095.818 526.585 2095.685 526.19 2095.552 C 570.935 2091.607 606.295 2058.614 607.997 2017.652 L 614.75 1856.638 C 615.074 1849.219 611.32 1842.521 605.304 1838.231 L 616.363 1838.231 L 644.059 1838.231 L 647.926 1838.231 C 652.118 1838.231 656.056 1839.141 659.52 1840.757 C 663.748 1844.945 666.229 1850.552 665.966 1856.638 L 659.266 2017.652 C 657.407 2061.335 617.275 2095.944 568.365 2095.944 Z " fill="rgb(63,96,209)"/><path d=" M 558.543 2100.853 L 525.611 2100.853 C 517.078 2100.853 508.825 2099.802 500.985 2097.834 C 508.825 2099.802 517.087 2100.853 525.611 2100.853 L 558.543 2100.853 L 558.543 2100.853 Z " fill="rgb(166,140,193)"/><path d=" M 440.92 2049.226 C 437.274 2040.929 435.104 2031.949 434.702 2022.554 L 430.808 1928.93 L 434.722 2022.554 C 435.114 2031.949 437.279 2040.929 440.92 2049.226 Z " fill="rgb(255,255,255)"/><path d=" M 558.543 2100.853 L 525.611 2100.853 C 517.087 2100.853 508.825 2099.802 500.985 2097.834 C 473.535 2090.94 451.276 2072.801 440.92 2049.226 C 437.279 2040.929 435.114 2031.949 434.722 2022.554 L 430.808 1928.93 L 428.006 1861.547 C 427.456 1848.834 438.874 1838.231 453.147 1838.231 L 486.085 1838.231 C 471.81 1838.231 460.392 1848.834 460.941 1861.547 L 467.639 2022.554 C 469.071 2056.08 493.022 2084.251 526.19 2095.552 C 523.428 2095.795 520.63 2095.928 517.806 2095.944 L 527.374 2095.944 C 537.1 2099.12 547.606 2100.853 558.543 2100.853 Z " fill="rgb(170,202,252)"/><path d=" M 527.374 2095.944 L 517.806 2095.944 C 520.63 2095.928 523.428 2095.795 526.19 2095.552 C 526.585 2095.685 526.979 2095.818 527.374 2095.944 Z " fill="rgb(168,183,234)"/><path d=" M 453.131 1849.352 C 449.645 1849.352 446.39 1850.591 443.975 1852.842 C 441.556 1855.085 440.297 1858.034 440.425 1861.147 L 447.152 2022.146 C 448.741 2060.041 483.208 2089.733 525.62 2089.733 L 575.442 2089.733 C 617.854 2089.733 652.32 2060.041 653.908 2022.138 L 660.634 1861.155 C 660.766 1858.034 659.503 1855.085 657.082 1852.842 C 654.671 1850.591 651.417 1849.352 647.926 1849.352 L 453.131 1849.352 Z  M 575.442 2111.982 L 525.62 2111.982 C 469.763 2111.982 424.376 2072.887 422.29 2022.977 L 415.563 1861.979 C 415.173 1852.771 418.899 1844.043 426.05 1837.4 C 433.205 1830.765 442.819 1827.103 453.131 1827.103 L 647.926 1827.103 C 658.24 1827.103 667.852 1830.765 675.008 1837.4 C 682.165 1844.043 685.883 1852.771 685.497 1861.986 L 678.771 2022.969 C 676.683 2072.887 631.299 2111.982 575.442 2111.982 Z " fill="rgb(57,0,117)"/><path d=" M 671.474 1910.72 L 550.528 1905.159 L 429.582 1899.599 L 671.474 1888.47 L 671.474 1910.72 Z " fill="rgb(57,0,117)"/><path d=" M 526.997 1619.512 C 542.02 1633.566 557.21 1647.808 568.514 1665.061 C 574.109 1673.672 578.643 1682.981 581.388 1692.91 C 584.133 1702.791 584.94 1713.473 583.055 1723.817 C 579.38 1744.529 568.155 1762.496 562.033 1779.938 C 559.025 1788.581 557.218 1797.458 557.473 1805.756 C 557.701 1814.069 560.235 1821.519 565.076 1826.97 C 569.356 1831.793 568.453 1838.804 563.059 1842.631 C 557.666 1846.466 549.825 1845.658 545.545 1840.835 C 545.274 1840.529 545.028 1840.216 544.8 1839.902 L 544.546 1839.549 C 536.942 1828.852 534.776 1816.296 535.706 1805.238 C 536.618 1794.047 540.055 1783.757 544.528 1774.15 C 553.675 1755.203 565.83 1739.385 570.856 1721.645 C 576.065 1704.172 571.917 1684.84 562.998 1667.634 C 554.017 1650.278 540.468 1634.773 526.997 1619.512 Z " fill="rgb(57,0,117)"/><path d=" M 445.086 694.285 C 445.084 694.262 445.082 694.246 445.081 694.222 C 445.082 694.246 445.084 694.262 445.086 694.285 Z  M 445.068 694.113 C 444.609 689.564 444.334 684.968 444.252 680.333 C 442.516 582.381 525.26 501.375 631.562 491.784 C 525.252 501.383 442.517 582.381 444.254 680.333 C 444.335 684.968 444.61 689.564 445.068 694.113 Z " fill="rgb(156,128,186)"/><path d=" M 838.06 910.926 L 744.335 861.997 C 736.714 858.013 728.128 855.982 719.455 855.982 C 715.166 855.982 710.851 856.484 706.633 857.488 C 690.005 861.456 672.57 863.644 654.574 863.785 C 653.978 863.785 653.381 863.793 652.776 863.793 C 633.78 863.793 615.328 861.472 597.771 857.143 C 615.328 861.472 633.772 863.785 652.785 863.785 C 653.381 863.785 653.978 863.785 654.583 863.777 C 672.658 863.644 690.18 861.44 706.878 857.425 C 711.018 856.437 715.245 855.95 719.455 855.95 C 728.119 855.95 736.723 858.013 744.335 861.989 L 838.06 910.926 L 838.06 910.926 Z  M 816.275 877.564 L 801.656 855.158 C 801.594 855.072 801.533 854.978 801.48 854.892 L 816.275 877.564 Z  M 597.753 857.135 C 597.56 857.088 597.367 857.041 597.174 856.994 C 597.367 857.041 597.56 857.088 597.753 857.135 Z  M 597.122 856.978 C 597.043 856.954 596.964 856.939 596.876 856.915 C 596.955 856.939 597.043 856.954 597.122 856.978 Z  M 596.832 856.907 C 596.745 856.884 596.666 856.86 596.578 856.837 C 596.657 856.86 596.753 856.884 596.832 856.907 Z  M 596.473 856.813 C 596.42 856.805 596.368 856.79 596.315 856.774 C 596.368 856.79 596.42 856.805 596.473 856.813 Z  M 596.192 856.743 C 596.14 856.727 596.087 856.719 596.026 856.703 C 596.087 856.719 596.14 856.727 596.192 856.743 Z  M 595.815 856.648 C 595.789 856.641 595.762 856.633 595.727 856.625 C 595.762 856.633 595.789 856.641 595.815 856.648 Z  M 794.71 832.776 C 794.561 821.726 798.928 810.738 807.602 802.143 C 807.698 802.049 807.795 801.963 807.882 801.869 C 799.226 810.637 794.657 821.687 794.71 832.776 Z " fill="rgb(57,0,117)"/><path d=" M 1082.077 926.149 C 1014.819 1033.05 982.721 1151.989 985.782 1282.975 L 1657.617 1268.301 C 1739.827 1137.081 1734.249 964.24 1658.178 877.172 L 1082.077 926.149 Z " fill="rgb(138,66,58)"/><path d=" M 997.323 1267.297 C 997.139 1150.617 1026.098 1042.563 1083.506 945.7 C 1087.523 949.762 1091.864 953.409 1096.486 956.617 C 1046.102 1045.88 1019.31 1143.245 1016.196 1248.719 C 1009.373 1254.436 1003.059 1260.647 997.323 1267.297 Z " fill="rgb(202,170,166)"/><path d=" M 1089.321 936.077 C 1027.22 1036.751 996.297 1149.762 997.35 1272.223 L 1650.583 1257.957 C 1722.821 1138.053 1723.707 975.031 1652.767 888.175 L 1089.321 936.077 Z  M 985.782 1293.468 C 982.756 1293.468 979.853 1292.433 977.67 1290.566 C 975.416 1288.637 974.109 1285.986 974.039 1283.194 C 970.952 1150.915 1003.857 1029.058 1071.842 921.004 C 1073.727 918.008 1077.139 916.032 1080.963 915.702 L 1657.073 866.718 C 1661.037 866.405 1664.966 867.887 1667.43 870.71 C 1706.457 915.389 1728.32 981.227 1728.987 1056.091 C 1729.662 1132.242 1707.956 1209.428 1667.86 1273.438 C 1665.834 1276.669 1662.054 1278.708 1657.906 1278.795 L 986.063 1293.468 C 985.975 1293.468 985.87 1293.468 985.782 1293.468 Z " fill="rgb(57,0,117)"/><path d=" M 1791.008 1513.152 L 923.532 1513.152 C 935.398 1428.876 956.955 1356.137 990.228 1296.981 C 1011.627 1259.055 1050.61 1231.496 1096.608 1221.121 L 1286.847 1178.52 L 1292.013 1177.352 C 1305.299 1174.387 1314.885 1163.965 1315.481 1151.699 L 1316.893 1125.748 C 1316.893 1125.748 1388.877 1032.995 1457.204 1111.82 L 1457.204 1142.249 C 1457.204 1153.354 1464.229 1163.525 1475.446 1168.498 L 1511.21 1184.316 L 1542.466 1198.142 L 1575.731 1212.894 L 1581.282 1215.333 L 1646.619 1244.248 L 1680.752 1259.345 L 1698.23 1267.086 C 1724.312 1278.622 1744.019 1299.075 1752.946 1323.803 C 1770.32 1372.246 1781.694 1425.418 1788.07 1482.433 C 1789.21 1492.558 1790.193 1502.784 1791.008 1513.152 Z " fill="rgb(255,183,138)"/><path d=" M 926.032 1511.176 L 1788.64 1511.176 C 1787.86 1501.623 1786.93 1492.032 1785.869 1482.629 C 1779.353 1424.273 1767.566 1371.038 1750.85 1324.407 C 1742.151 1300.322 1722.62 1280.073 1697.248 1268.858 L 1474.464 1170.262 C 1462.449 1164.945 1454.994 1154.216 1454.994 1142.249 L 1454.994 1112.502 C 1436.867 1091.798 1416.968 1081.571 1395.622 1082.058 C 1355.569 1082.999 1322.839 1121.788 1319.077 1126.423 L 1317.683 1151.793 C 1317.051 1164.804 1306.711 1176.105 1292.548 1179.273 L 1287.382 1180.434 L 1097.143 1223.042 C 1051.469 1233.339 1013.214 1260.608 992.193 1297.868 C 960.498 1354.247 938.24 1425.998 926.032 1511.176 Z  M 1791.008 1515.128 L 923.532 1515.128 C 922.892 1515.128 922.296 1514.885 921.875 1514.462 C 921.454 1514.03 921.261 1513.466 921.34 1512.901 C 933.539 1426.304 956.052 1353.361 988.246 1296.095 C 1009.847 1257.808 1049.145 1229.787 1096.073 1219.207 L 1291.478 1175.438 C 1303.765 1172.693 1312.719 1162.898 1313.271 1151.613 L 1314.692 1125.654 C 1314.718 1125.285 1314.85 1124.925 1315.087 1124.619 C 1316.525 1122.768 1350.868 1079.164 1395.49 1078.113 C 1418.415 1077.525 1439.787 1088.504 1458.95 1110.612 C 1459.248 1110.957 1459.415 1111.381 1459.415 1111.82 L 1459.415 1142.249 C 1459.415 1152.703 1465.931 1162.075 1476.428 1166.725 L 1699.213 1265.313 C 1725.637 1277.006 1745.992 1298.103 1755.051 1323.199 C 1771.863 1370.097 1783.712 1423.598 1790.263 1482.229 C 1791.412 1492.369 1792.403 1502.721 1793.209 1513.011 C 1793.262 1513.56 1793.043 1514.101 1792.622 1514.501 C 1792.21 1514.901 1791.622 1515.128 1791.008 1515.128 Z " fill="rgb(57,0,117)"/><path d=" M 957.358 1496.542 L 937.88 1496.542 C 950.325 1419.262 971.434 1353.785 1000.726 1301.71 C 1018.117 1270.827 1048.093 1247.244 1084.357 1235.457 L 1083.769 1251.895 C 1056.223 1265.949 1033.491 1286.974 1018.915 1312.8 C 990.018 1364.215 969.935 1425.943 957.358 1496.542 Z  M 1203.471 1219.443 C 1201.112 1216.227 1198.744 1212.957 1196.367 1209.616 L 1285.584 1189.633 C 1283.33 1196.958 1276.849 1203.012 1268.036 1204.989 L 1203.471 1219.443 Z " fill="rgb(255,223,202)"/><path d=" M 1409.846 1202.754 C 1370.881 1202.754 1335.679 1196.229 1303.273 1184.818 C 1317.183 1178.779 1326.479 1166.474 1327.216 1152.224 L 1327.408 1148.695 C 1349.211 1153.134 1371.574 1155.33 1394.718 1155.33 C 1401.945 1155.33 1409.268 1155.118 1416.661 1154.687 C 1416.827 1154.679 1416.994 1154.671 1417.161 1154.656 C 1427.211 1153.683 1436.972 1152.358 1446.47 1150.679 C 1449.268 1162.38 1457.836 1172.395 1470.21 1177.885 L 1480.673 1182.512 C 1481.34 1186.081 1481.98 1189.649 1482.602 1193.225 C 1465.773 1197.531 1448.426 1200.44 1430.798 1202.134 C 1423.694 1202.55 1416.713 1202.754 1409.846 1202.754 Z " fill="rgb(195,128,132)"/><path d=" M 1646.61 1244.24 L 1646.61 1513.16 L 1086.181 1513.16 L 1096.617 1221.136 L 1177.889 1202.95 C 1303.256 1386.386 1435.806 1429.935 1581.554 1215.451 L 1646.61 1244.24 Z " fill="rgb(247,92,184)"/><path d=" M 1777.766 1496.542 L 1761.804 1496.542 L 1697.301 1395.514 L 1684.312 1375.171 L 1677.814 1364.999 C 1675.727 1361.69 1673.762 1358.474 1671.859 1355.149 C 1666.571 1345.84 1662.054 1336.186 1658.353 1326.289 L 1658.353 1261.141 L 1681.366 1271.328 C 1681.576 1273.799 1681.822 1276.261 1682.12 1278.724 C 1685.768 1309.294 1696.433 1338.899 1713.534 1365.627 L 1773.354 1459.376 C 1775.064 1471.508 1776.529 1483.907 1777.766 1496.542 Z " fill="rgb(195,128,132)"/><path d=" M 1115.552 1496.542 L 1098.52 1496.542 L 1108.071 1229.395 L 1172.408 1214.996 C 1174.81 1218.431 1177.205 1221.811 1179.59 1225.128 L 1124.813 1237.386 L 1115.552 1496.542 Z " fill="rgb(251,181,223)"/><path d=" M 1414.284 1375.375 C 1400.463 1375.375 1386.746 1373.242 1373.126 1369.085 C 1377.459 1369.462 1381.791 1369.65 1386.132 1369.65 L 1386.299 1369.65 C 1433.868 1369.595 1480.05 1347.22 1526.04 1301.648 C 1526.259 1302.534 1526.47 1303.428 1526.698 1304.314 C 1528.066 1309.992 1529.689 1315.607 1531.574 1321.16 C 1531.793 1321.818 1532.013 1322.469 1532.232 1323.12 C 1491.978 1358.866 1452.705 1375.375 1414.284 1375.375 Z " fill="rgb(251,181,223)"/><path d=" M 1098.301 1502.667 L 1634.876 1502.667 L 1634.876 1250.758 L 1585.931 1229.104 C 1519.892 1323.575 1454.521 1369.571 1386.299 1369.65 L 1386.132 1369.65 C 1314.894 1369.658 1244.935 1319.05 1172.408 1214.996 L 1108.071 1229.395 L 1098.301 1502.667 Z  M 1646.61 1523.661 L 1086.181 1523.661 C 1083.006 1523.661 1079.954 1522.508 1077.753 1520.469 C 1075.543 1518.422 1074.341 1515.669 1074.447 1512.83 L 1084.883 1220.807 C 1085.05 1216.117 1088.68 1212.094 1093.767 1210.957 L 1175.039 1192.762 C 1180.037 1191.657 1185.238 1193.554 1187.913 1197.476 C 1256.459 1297.789 1323.164 1348.656 1386.141 1348.656 L 1386.264 1348.656 C 1446.716 1348.593 1509.044 1301.938 1571.521 1210 C 1574.687 1205.35 1581.291 1203.632 1586.764 1206.048 L 1651.82 1234.829 C 1655.819 1236.602 1658.353 1240.249 1658.353 1244.24 L 1658.353 1513.16 C 1658.353 1518.963 1653.1 1523.661 1646.61 1523.661 Z " fill="rgb(57,0,117)"/><path d=" M 936.915 1502.667 L 1778.344 1502.667 C 1772.381 1437.08 1760.085 1378.041 1741.765 1327.034 C 1733.863 1305.13 1716.086 1286.7 1693.012 1276.481 L 1470.21 1177.885 C 1454.951 1171.117 1445.479 1157.463 1445.479 1142.249 L 1445.479 1115.49 C 1430.254 1098.95 1413.995 1090.567 1397.095 1090.567 C 1396.709 1090.567 1396.332 1090.575 1395.946 1090.582 C 1363.734 1091.304 1335.854 1120.894 1328.452 1129.458 L 1327.216 1152.224 C 1326.339 1169.18 1313.341 1183.391 1294.863 1187.555 L 1099.467 1231.324 C 1056.468 1240.978 1020.476 1266.631 1000.726 1301.71 C 970.671 1355.149 949.22 1422.712 936.915 1502.667 Z  M 1791.008 1523.661 L 923.532 1523.661 C 920.156 1523.661 916.955 1522.367 914.727 1520.108 C 912.5 1517.85 911.465 1514.846 911.877 1511.85 C 924.181 1424.351 947.018 1350.475 979.757 1292.276 C 1002.576 1251.738 1044.129 1222.101 1093.758 1210.957 L 1289.145 1167.196 C 1297.354 1165.345 1303.379 1158.781 1303.765 1151.236 L 1305.177 1125.246 C 1305.282 1123.278 1306.001 1121.38 1307.255 1119.764 C 1308.807 1117.764 1345.861 1070.757 1395.271 1069.596 C 1421.353 1069.016 1445.374 1081.022 1466.492 1105.381 C 1468.088 1107.224 1468.948 1109.491 1468.948 1111.812 L 1468.948 1142.249 C 1468.948 1149.433 1473.429 1155.879 1480.629 1159.071 L 1703.431 1257.667 C 1732.153 1270.387 1754.271 1293.327 1764.119 1320.595 C 1784.054 1376.12 1797.042 1440.656 1802.716 1512.423 C 1802.944 1515.332 1801.822 1518.187 1799.603 1520.32 C 1797.375 1522.453 1794.271 1523.661 1791.008 1523.661 Z " fill="rgb(57,0,117)"/><path d=" M 1647.268 800.951 L 1647.268 922.769 C 1647.268 955.927 1639.156 988.842 1622.501 1018.439 C 1576.003 1101.303 1499.344 1136.116 1415.88 1144.202 C 1357.13 1147.605 1306.659 1136.602 1261.633 1116.11 C 1216.336 1095.562 1182.958 1058.805 1168.154 1015.373 L 1150.026 962.452 C 1068.79 962.452 1042.383 856.405 1090.408 825.098 C 1099.441 819.208 1111.096 815.946 1125.523 816.534 C 1125.681 816.487 1125.795 816.534 1125.9 816.534 C 1288.75 829.043 1445.988 728.071 1456.713 591.595 C 1463.466 609.367 1470.596 626.016 1478.323 641.552 C 1494.223 673.832 1512.412 701.438 1534.302 725.098 C 1563.97 757.182 1600.445 781.917 1647.268 800.951 Z " fill="rgb(255,183,138)"/><path d=" M 1122.234 818.44 C 1110.377 818.44 1100.125 821.216 1091.706 826.698 C 1069.649 841.081 1062.432 873.588 1074.148 905.758 C 1083.787 932.211 1108.781 960.475 1150.026 960.475 C 1151 960.475 1151.851 961.04 1152.131 961.871 L 1170.259 1014.792 C 1185.045 1058.138 1218.713 1094.425 1262.633 1114.345 C 1310.842 1136.288 1360.919 1145.417 1415.74 1142.225 C 1510.316 1133.065 1579.248 1091.124 1620.528 1017.553 C 1636.577 989.022 1645.058 956.248 1645.058 922.769 L 1645.058 802.222 C 1599.173 783.384 1562.374 758.562 1532.6 726.361 C 1511.131 703.147 1492.714 675.667 1476.306 642.344 C 1469.982 629.647 1463.957 616.017 1457.976 600.881 C 1450.767 657.182 1418.222 709.892 1365.558 750.163 C 1300.029 800.277 1212.592 825.161 1125.716 818.503 C 1125.62 818.51 1125.506 818.51 1125.427 818.503 C 1124.348 818.463 1123.287 818.44 1122.234 818.44 Z  M 1394.762 1146.79 C 1347.29 1146.79 1303.238 1137.261 1260.634 1117.866 C 1215.652 1097.46 1181.169 1060.318 1166.04 1015.953 L 1148.386 964.412 C 1105.756 963.683 1079.937 934.407 1069.956 906.989 C 1057.652 873.212 1065.519 838.877 1089.101 823.506 C 1099.073 817.005 1111.298 814.001 1125.532 814.558 C 1125.76 814.55 1125.979 814.55 1126.137 814.573 C 1211.802 821.145 1298.047 796.591 1362.681 747.167 C 1417.283 705.414 1449.899 650.116 1454.512 591.462 C 1454.582 590.521 1455.389 589.76 1456.433 589.643 C 1457.441 589.525 1458.467 590.074 1458.801 590.96 C 1465.843 609.492 1472.894 625.781 1480.349 640.744 C 1496.591 673.738 1514.797 700.912 1536.003 723.844 C 1565.619 755.872 1602.322 780.506 1648.18 799.155 C 1648.978 799.477 1649.478 800.182 1649.478 800.951 L 1649.478 922.769 C 1649.478 956.868 1640.831 990.253 1624.475 1019.325 C 1582.475 1094.166 1512.377 1136.837 1416.117 1146.162 C 1408.926 1146.578 1401.804 1146.79 1394.762 1146.79 Z " fill="rgb(57,0,117)"/><path d=" M 1422.458 1130.838 C 1377.968 1130.838 1338.336 1122.36 1302.23 1107.757 C 1317.419 1109.961 1333.205 1111.122 1349.658 1111.122 C 1356.516 1111.122 1363.488 1110.918 1370.583 1110.51 C 1454.047 1102.425 1530.706 1067.612 1577.196 984.748 C 1583.159 974.153 1588.027 963.142 1591.824 951.841 C 1599.673 949.872 1604.9 946.374 1604.9 942.383 C 1604.9 939.301 1601.787 936.516 1596.753 934.501 C 1600.243 919.608 1601.971 904.37 1601.971 889.077 L 1601.971 791.438 C 1612.6 797.257 1623.773 802.645 1635.551 807.664 L 1635.551 922.784 C 1635.551 946.696 1631.061 970.216 1622.423 991.947 L 1616.792 984.567 C 1614.17 981.14 1609.952 979.195 1605.461 979.195 C 1604.672 979.195 1603.883 979.258 1603.085 979.376 C 1597.709 980.199 1593.499 983.642 1592.105 988.355 L 1589.974 995.523 C 1585.764 1009.679 1588.325 1024.909 1596.99 1037.347 C 1586.413 1052.013 1574.416 1065.063 1561.05 1076.474 C 1560.305 1076.442 1559.559 1076.435 1558.814 1076.435 C 1555.779 1076.435 1552.736 1076.638 1549.728 1077.062 C 1547.044 1077.462 1544.37 1077.964 1541.765 1078.693 L 1535.389 1080.473 L 1522.892 1083.995 L 1516.648 1085.759 C 1515.7 1086.01 1514.42 1086.41 1513.122 1086.842 C 1511.859 1087.281 1510.561 1087.626 1509.342 1088.159 C 1499.388 1092.049 1490.653 1098.386 1484.4 1106.299 C 1480.603 1111.083 1477.674 1116.423 1475.788 1122.054 C 1464.37 1125.489 1452.434 1128.273 1439.971 1130.407 C 1434.052 1130.697 1428.211 1130.838 1422.458 1130.838 Z " fill="rgb(195,128,132)"/><path d=" M 1302.23 1107.757 C 1281.041 1104.691 1261.028 1099.601 1241.98 1092.81 C 1212.662 1073.054 1190.465 1044.774 1179.397 1012.314 L 1161.261 959.393 C 1159.752 954.978 1155.201 951.966 1150.044 951.966 C 1116.525 951.966 1098.503 931.074 1090.741 918.62 C 1075.49 894.143 1073.947 862.609 1087.075 843.646 C 1090.575 838.587 1094.942 834.674 1100.143 831.913 C 1081.962 870.553 1104.572 934.885 1159.454 946.61 C 1171.364 949.159 1180.634 957.566 1184.221 968.035 L 1195.648 1001.397 C 1210.461 1044.829 1243.83 1081.587 1289.127 1102.134 C 1293.442 1104.095 1297.81 1105.977 1302.23 1107.757 Z " fill="rgb(255,223,202)"/><path d=" M 1394.85 1134.336 C 1349.605 1134.336 1307.597 1125.262 1266.966 1106.761 C 1258.178 1102.777 1249.82 1098.095 1241.98 1092.81 C 1261.028 1099.601 1281.041 1104.691 1302.23 1107.757 C 1338.336 1122.36 1377.968 1130.838 1422.458 1130.838 C 1428.211 1130.838 1434.052 1130.697 1439.971 1130.407 C 1431.833 1131.803 1423.466 1132.916 1414.889 1133.755 C 1408.136 1134.14 1401.454 1134.336 1394.85 1134.336 Z " fill="rgb(228,198,200)"/><path d=" M 1122.182 826.98 C 1106.545 826.98 1094.74 832.58 1087.075 843.646 C 1073.947 862.609 1075.49 894.143 1090.741 918.62 C 1098.503 931.074 1116.525 951.966 1150.044 951.966 C 1155.201 951.966 1159.752 954.978 1161.261 959.393 L 1179.397 1012.314 C 1193.42 1053.464 1225.343 1087.885 1266.966 1106.761 C 1313.534 1127.96 1361.901 1136.783 1414.889 1133.755 C 1506.01 1124.87 1572.328 1084.497 1612.021 1013.749 C 1627.421 986.403 1635.551 954.954 1635.551 922.784 L 1635.551 807.664 C 1554.192 773.008 1501.537 720.526 1461.133 632.212 C 1447.531 679.079 1416.731 722.275 1371.776 756.657 C 1304.449 808.143 1214.644 833.795 1125.418 827.043 C 1125.278 827.043 1125.137 827.043 1124.997 827.035 C 1124.05 826.996 1123.111 826.98 1122.182 826.98 Z  M 1394.718 1155.33 C 1345.79 1155.33 1300.318 1145.503 1256.328 1125.482 C 1209.057 1104.032 1172.82 1065.024 1156.946 1018.447 L 1141.23 972.576 C 1111.684 969.988 1086.146 954.374 1070.237 928.839 C 1050.785 897.618 1049.505 858.044 1067.115 832.596 C 1079.603 814.55 1100.239 805.108 1125.628 806.049 C 1126.058 806.049 1126.479 806.056 1126.9 806.088 L 1126.926 806.088 C 1210.127 812.479 1293.811 788.654 1356.516 740.697 C 1409.162 700.442 1440.594 647.238 1445.023 590.882 C 1445.409 585.894 1449.68 581.855 1455.222 581.204 C 1460.712 580.553 1466.036 583.494 1467.842 588.231 C 1508.974 696.112 1562.366 754.97 1652.144 791.415 C 1656.336 793.116 1659.028 796.849 1659.028 800.975 L 1659.028 922.784 C 1659.028 958.217 1650.03 992.928 1633.008 1023.176 C 1589.474 1100.762 1516.849 1145.001 1417.161 1154.656 C 1416.994 1154.671 1416.827 1154.679 1416.661 1154.687 C 1409.268 1155.118 1401.945 1155.33 1394.718 1155.33 Z " fill="rgb(57,0,117)"/><path d=" M 1129.75 828.964 C 1129.189 828.964 1128.619 828.933 1128.049 828.87 C 1127.137 828.768 1126.26 828.745 1125.383 828.713 L 1126.523 804.386 C 1128.18 804.457 1129.759 804.527 1131.417 804.715 C 1138.871 805.547 1144.168 811.625 1143.238 818.299 C 1142.379 824.455 1136.512 828.964 1129.75 828.964 Z " fill="rgb(57,0,117)"/><path d=" M 1647.285 903.217 L 1647.285 800.975 C 1651.539 798.292 1655.564 795.516 1659.432 792.599 C 1728.96 781.494 1734.398 903.217 1647.285 903.217 Z " fill="rgb(255,183,138)"/><path d=" M 1649.496 801.994 L 1649.496 901.21 C 1673.271 900.614 1691.925 890.285 1702.186 871.988 C 1713.823 851.237 1712.271 824.196 1698.493 807.703 C 1692.056 799.986 1680.234 791.477 1660.397 794.45 C 1656.915 797.069 1653.328 799.547 1649.496 801.994 Z  M 1647.285 905.194 C 1646.066 905.194 1645.075 904.307 1645.075 903.217 L 1645.075 800.975 C 1645.075 800.331 1645.435 799.728 1646.014 799.359 C 1650.267 796.677 1654.187 793.971 1658.002 791.085 C 1658.301 790.866 1658.66 790.709 1659.037 790.654 C 1676.533 787.862 1691.793 793.077 1702.037 805.335 C 1716.753 822.965 1718.48 851.739 1706.132 873.761 C 1694.775 894.026 1673.876 905.194 1647.285 905.194 Z " fill="rgb(57,0,117)"/><path d=" M 1659.028 806.307 L 1659.028 891.783 C 1678.217 888.567 1688.373 877.604 1693.661 868.169 C 1703.615 850.429 1702.405 826.627 1690.864 812.801 C 1684.304 804.951 1675.428 801.524 1664.387 802.559 C 1662.633 803.837 1660.853 805.076 1659.028 806.307 Z  M 1647.285 913.71 C 1640.804 913.71 1635.551 909.013 1635.551 903.217 L 1635.551 800.975 C 1635.551 797.555 1637.41 794.355 1640.524 792.387 C 1644.549 789.854 1648.25 787.305 1651.846 784.584 C 1653.424 783.384 1655.328 782.584 1657.362 782.262 C 1678.586 778.874 1697.16 785.258 1709.675 800.237 C 1726.426 820.306 1728.531 852.837 1714.657 877.58 C 1701.782 900.543 1677.226 913.71 1647.285 913.71 Z " fill="rgb(57,0,117)"/><path d=" M 1490.943 990.418 C 1482.313 991.367 1474.701 991.83 1467.422 992.826 C 1460.16 993.759 1453.302 995.045 1446.461 996.692 C 1439.629 998.362 1432.798 1000.362 1425.65 1002.59 C 1418.476 1004.785 1411.118 1007.295 1402.602 1009.256 L 1402.567 1009.264 C 1401.296 1009.554 1399.989 1008.864 1399.665 1007.726 C 1399.515 1007.209 1399.594 1006.683 1399.849 1006.236 C 1403.9 999.068 1409.864 993.233 1416.862 988.402 C 1423.87 983.611 1432.07 979.925 1440.901 977.886 C 1458.502 973.698 1478.559 976.254 1492.249 986.701 C 1493.24 987.461 1493.354 988.802 1492.513 989.689 C 1492.109 990.104 1491.565 990.355 1491.004 990.418 L 1490.943 990.418 Z " fill="rgb(57,0,117)"/><path d=" M 1283.374 986.912 C 1268.071 986.912 1256.415 982.764 1255.091 975.98 C 1253.363 967.157 1269.798 957.205 1291.794 953.77 C 1296.889 952.97 1301.844 952.594 1306.466 952.594 C 1321.769 952.594 1333.425 956.742 1334.749 963.526 C 1336.477 972.349 1320.042 982.301 1298.047 985.736 C 1292.951 986.536 1287.996 986.912 1283.374 986.912 Z " fill="rgb(248,155,166)"/><path d=" M 1577.134 953.527 C 1561.804 953.527 1549.368 948.539 1549.368 942.383 C 1549.368 936.226 1561.804 931.238 1577.134 931.238 C 1584.79 931.238 1591.728 932.485 1596.753 934.501 C 1595.385 940.336 1593.736 946.124 1591.824 951.841 C 1587.562 952.907 1582.528 953.527 1577.134 953.527 Z " fill="rgb(248,155,166)"/><path d=" M 1591.824 951.841 C 1593.736 946.124 1595.385 940.336 1596.753 934.501 C 1601.787 936.516 1604.9 939.301 1604.9 942.383 C 1604.9 946.374 1599.673 949.872 1591.824 951.841 Z " fill="rgb(207,117,162)"/><path d=" M 1553.648 758.515 C 1553.885 758.515 1553.613 758.429 1553.42 758.358 C 1553.254 758.28 1553.017 758.209 1552.754 758.147 C 1552.263 758.005 1551.754 757.864 1551.184 757.762 C 1550.096 757.496 1548.921 757.37 1547.737 757.19 C 1545.361 756.978 1542.887 756.845 1540.423 757.033 C 1535.477 757.339 1530.452 758.468 1525.654 760.515 C 1520.971 762.703 1516.314 765.542 1512.289 769.259 C 1510.149 771.008 1508.474 773.189 1506.474 775.181 C 1504.738 777.337 1503.107 779.612 1501.379 781.878 L 1501.142 782.176 C 1500.09 783.564 1497.967 783.925 1496.424 782.976 C 1495.135 782.192 1494.644 780.749 1495.117 779.486 C 1496.161 776.726 1497.143 773.902 1498.301 771.102 C 1499.757 768.42 1500.923 765.542 1502.721 762.923 C 1506.027 757.519 1510.517 752.531 1515.902 748.053 C 1521.401 743.693 1527.996 740.164 1535.222 737.803 C 1538.827 736.595 1542.607 735.772 1546.474 735.16 C 1548.43 734.925 1550.386 734.666 1552.42 734.588 C 1553.42 734.509 1554.473 734.502 1555.542 734.502 C 1556.06 734.494 1556.604 734.502 1557.209 734.541 C 1557.788 734.564 1558.296 734.572 1559.305 734.705 C 1566.654 736.101 1571.355 742.564 1569.794 749.143 C 1568.233 755.715 1561.006 759.911 1553.648 758.515 Z " fill="rgb(57,0,117)"/><path d=" M 1138.459 964.169 L 1138.687 913.687 C 1138.696 912.511 1139.766 911.562 1141.081 911.562 C 1142.116 911.569 1143.002 912.173 1143.317 913.005 L 1161.62 960.765 C 1163.752 966.326 1160.445 972.38 1154.219 974.286 C 1148.001 976.192 1141.23 973.227 1139.099 967.667 C 1138.661 966.522 1138.459 965.314 1138.459 964.169 Z " fill="rgb(57,0,117)"/><path d=" M 1212.785 799.202 C 1217.266 800.7 1222.835 802.174 1228.018 803.437 C 1233.289 804.731 1238.647 805.915 1244.032 806.888 C 1254.81 808.848 1265.755 810.456 1276.718 811.021 C 1287.654 811.57 1298.713 811.578 1309.526 810.095 C 1320.296 808.543 1330.864 805.758 1340.616 801.022 L 1340.756 800.959 C 1342.344 800.182 1344.335 800.708 1345.194 802.127 C 1345.957 803.382 1345.589 804.911 1344.405 805.79 C 1335.091 812.644 1324.172 817.718 1312.745 821.42 C 1301.274 825.059 1289.347 827.106 1277.358 828.541 C 1265.343 829.953 1253.293 830.251 1241.226 830.117 C 1235.183 830.062 1229.158 829.78 1223.116 829.357 C 1216.959 828.925 1211.241 828.447 1204.567 827.474 L 1204.409 827.451 C 1195.455 826.149 1189.386 818.604 1190.842 810.597 C 1192.307 802.598 1200.743 797.163 1209.689 798.473 C 1210.732 798.622 1211.82 798.888 1212.785 799.202 Z " fill="rgb(57,0,117)"/><path d=" M 1728.943 654.892 C 1719.848 720.62 1696.704 769.989 1647.268 800.951 C 1549.272 761.174 1496.617 696.277 1456.713 591.595 C 1445.988 728.071 1288.75 829.043 1125.9 816.534 C 1125.795 816.534 1125.681 816.487 1125.523 816.534 C 1125.251 816.534 1124.927 816.487 1124.593 816.487 C 1122.471 816.291 1120.349 816.095 1118.279 815.805 C 1086.76 811.617 1060.134 795.304 1043.524 772.718 C 1031.061 755.817 1024.195 735.466 1025.072 713.946 C 1034.324 476.891 1291.855 274.254 1508.439 457.708 L 1546.334 442.125 C 1571.372 431.805 1601.322 436.965 1619.721 455.371 C 1629.465 465.112 1638.673 474.993 1647.268 485.118 C 1690.118 535.216 1719.191 590.38 1728.943 654.892 Z " fill="rgb(138,66,58)"/><path d=" M 1177.555 847.52 C 1168.461 847.52 1159.34 847.175 1150.184 846.477 C 1150.114 846.477 1150.044 846.453 1149.956 846.453 C 1149.904 846.453 1149.86 846.461 1149.807 846.477 C 1149.535 846.477 1149.202 846.43 1148.878 846.43 C 1146.755 846.234 1144.633 846.038 1142.563 845.747 C 1127.216 843.7 1113.026 838.791 1100.581 831.686 C 1106.676 828.549 1113.894 826.98 1122.182 826.98 C 1123.111 826.98 1124.05 826.996 1124.997 827.035 C 1125.05 827.035 1125.102 827.043 1125.155 827.043 C 1125.242 827.043 1125.33 827.043 1125.418 827.043 L 1125.418 827.043 C 1125.427 827.051 1125.444 827.051 1125.462 827.051 L 1125.383 828.713 C 1126.26 828.745 1127.137 828.768 1128.049 828.87 C 1128.619 828.933 1129.189 828.964 1129.75 828.964 C 1131.899 828.964 1133.969 828.51 1135.81 827.686 C 1141.739 827.968 1147.667 828.11 1153.596 828.11 C 1168.619 828.11 1183.58 827.208 1198.384 825.435 C 1200.173 826.431 1202.199 827.129 1204.409 827.451 L 1204.567 827.474 C 1211.241 828.447 1216.959 828.925 1223.116 829.357 C 1229.158 829.78 1235.183 830.062 1241.226 830.117 C 1242.883 830.133 1244.55 830.149 1246.207 830.149 C 1256.608 830.149 1267.001 829.757 1277.358 828.541 C 1289.198 827.121 1300.967 825.114 1312.307 821.553 C 1270.886 838.219 1224.799 847.52 1177.555 847.52 Z  M 1289.233 811.358 C 1285.058 811.358 1280.875 811.233 1276.718 811.021 C 1273.754 810.872 1270.798 810.637 1267.843 810.346 C 1305.703 798.238 1341.081 780.129 1371.776 756.657 L 1371.776 756.657 C 1416.731 722.275 1447.531 679.079 1461.133 632.212 C 1465.369 641.466 1469.737 650.32 1474.253 658.806 C 1456.038 722.659 1405.216 776.051 1338.836 809.562 C 1340.748 808.37 1342.607 807.107 1344.405 805.79 C 1345.589 804.911 1345.957 803.382 1345.194 802.127 C 1344.598 801.155 1343.475 800.598 1342.317 800.598 C 1341.791 800.598 1341.256 800.716 1340.756 800.959 L 1340.616 801.022 C 1330.864 805.758 1320.296 808.543 1309.526 810.095 C 1302.826 811.013 1296.029 811.358 1289.233 811.358 Z " fill="rgb(215,146,134)"/><path d=" M 1100.581 831.686 C 1097.047 829.662 1093.644 827.467 1090.408 825.098 C 1092.25 823.898 1094.205 822.808 1096.266 821.836 C 1104.949 824.431 1114.078 826.172 1123.559 826.933 L 1124.576 827.012 C 1124.769 827.027 1124.962 827.035 1125.155 827.043 C 1125.102 827.043 1125.05 827.035 1124.997 827.035 C 1124.05 826.996 1123.111 826.98 1122.182 826.98 C 1113.894 826.98 1106.676 828.549 1100.581 831.686 Z  M 1153.596 828.11 C 1147.667 828.11 1141.739 827.968 1135.81 827.686 C 1135.81 827.686 1135.81 827.686 1135.81 827.686 C 1141.73 827.968 1147.65 828.102 1153.57 828.102 C 1168.593 828.102 1183.563 827.2 1198.375 825.435 C 1198.375 825.435 1198.375 825.435 1198.384 825.435 C 1183.58 827.208 1168.619 828.11 1153.596 828.11 Z  M 1125.462 827.051 C 1125.444 827.051 1125.427 827.051 1125.418 827.043 C 1125.427 827.051 1125.444 827.051 1125.462 827.051 L 1125.462 827.051 Z  M 1267.843 810.346 C 1267.843 810.346 1267.834 810.346 1267.834 810.346 C 1305.694 798.238 1341.072 780.137 1371.776 756.657 C 1341.081 780.129 1305.703 798.238 1267.843 810.346 Z " fill="rgb(57,0,117)"/><path d=" M 1129.75 828.964 C 1129.189 828.964 1128.619 828.933 1128.049 828.87 C 1127.137 828.768 1126.26 828.745 1125.383 828.713 L 1125.462 827.051 C 1128.917 827.31 1132.364 827.521 1135.81 827.686 C 1135.81 827.686 1135.81 827.686 1135.81 827.686 C 1133.969 828.51 1131.899 828.964 1129.75 828.964 Z " fill="rgb(57,0,117)"/><path d=" M 1246.207 830.149 C 1244.55 830.149 1242.883 830.133 1241.226 830.117 C 1235.183 830.062 1229.158 829.78 1223.116 829.357 C 1216.959 828.925 1211.241 828.447 1204.567 827.474 L 1204.409 827.451 C 1202.199 827.129 1200.173 826.431 1198.384 825.435 C 1198.375 825.435 1198.375 825.435 1198.375 825.435 C 1222.098 822.596 1245.4 817.522 1267.834 810.346 C 1267.834 810.346 1267.843 810.346 1267.843 810.346 C 1270.798 810.637 1273.754 810.872 1276.718 811.021 C 1280.875 811.233 1285.058 811.358 1289.233 811.358 C 1296.029 811.358 1302.826 811.013 1309.526 810.095 C 1320.296 808.543 1330.864 805.758 1340.616 801.022 L 1340.756 800.959 C 1341.256 800.716 1341.791 800.598 1342.317 800.598 C 1343.475 800.598 1344.598 801.155 1345.194 802.127 C 1345.957 803.382 1345.589 804.911 1344.405 805.79 C 1342.607 807.107 1340.748 808.37 1338.836 809.562 C 1330.241 813.899 1321.383 817.907 1312.307 821.553 C 1300.967 825.114 1289.198 827.121 1277.358 828.541 C 1267.001 829.757 1256.608 830.149 1246.207 830.149 Z " fill="rgb(57,0,117)"/><path d=" M 1054.547 768.71 C 1042.655 753.355 1036.008 734.462 1036.797 714.291 C 1041.98 581.722 1129.961 454.658 1245.988 412.151 C 1273.289 402.158 1300.976 397.217 1328.557 397.217 C 1361.822 397.217 1394.92 404.411 1426.922 418.598 C 1402.199 410.92 1377.52 407.32 1353.324 407.32 C 1194.736 407.32 1056.082 561.825 1049.294 734.643 C 1048.847 746.469 1050.706 757.966 1054.547 768.71 Z  M 1532.714 478.405 C 1527.478 473.966 1522.234 469.77 1516.954 465.786 L 1551.263 451.677 C 1558.2 448.815 1565.619 447.435 1572.968 447.435 C 1585.001 447.435 1596.84 451.136 1606.084 458.116 C 1603.199 457.763 1600.278 457.583 1597.358 457.583 C 1588.298 457.583 1579.16 459.3 1570.609 462.822 L 1532.714 478.405 Z " fill="rgb(202,170,166)"/><path d=" M 1126.909 806.088 L 1126.926 806.088 C 1210.127 812.479 1293.811 788.654 1356.516 740.697 C 1409.162 700.442 1440.594 647.238 1445.023 590.882 C 1445.409 585.894 1449.68 581.855 1455.222 581.204 C 1460.712 580.553 1466.036 583.494 1467.842 588.231 C 1508.018 693.603 1559.892 752.21 1645.944 788.834 C 1647.961 787.446 1649.925 786.042 1651.846 784.584 C 1687.636 757.488 1708.404 716.283 1717.121 654.971 C 1706.404 586.145 1671.675 523.13 1610.986 462.382 C 1596.262 447.654 1571.697 443.255 1551.263 451.677 L 1513.359 467.26 C 1508.991 469.049 1503.861 468.296 1500.379 465.347 C 1422.589 399.453 1332.258 380.559 1245.988 412.151 C 1129.961 454.658 1041.98 581.722 1036.797 714.291 C 1034.947 761.574 1073.973 801.869 1125.655 806.025 L 1125.97 806.049 C 1126.286 806.049 1126.602 806.064 1126.909 806.088 Z  M 1153.57 828.102 C 1144.186 828.102 1134.811 827.757 1125.418 827.043 C 1125.137 827.043 1124.857 827.035 1124.576 827.012 L 1123.559 826.933 C 1059.459 821.781 1011.048 771.973 1013.328 713.554 C 1018.915 570.868 1110.93 438.941 1237.095 392.728 C 1330.232 358.614 1427.097 377.289 1510.684 445.254 L 1541.449 432.604 C 1571.153 420.362 1606.952 426.856 1628.491 448.391 C 1692.802 512.771 1729.469 579.863 1740.598 653.504 C 1740.73 654.398 1740.73 655.308 1740.607 656.202 C 1731.232 723.812 1707.842 769.699 1667.009 800.606 C 1662.879 803.735 1658.643 806.66 1654.047 809.554 C 1650.644 811.695 1646.224 812.072 1642.436 810.527 C 1557.147 775.91 1502.668 722.997 1461.133 632.212 C 1447.531 679.079 1416.731 722.275 1371.776 756.657 C 1311.526 802.723 1233.306 828.102 1153.57 828.102 Z " fill="rgb(57,0,117)"/><path d=" M 1600.717 1139.708 L 1616.082 1100.644 C 1622.44 1084.489 1620.204 1066.631 1610.004 1052.131 L 1598.98 1036.461 C 1590.517 1024.423 1588.027 1009.773 1592.105 996.025 L 1594.236 988.865 C 1596.779 980.309 1609.382 978.372 1614.968 985.681 L 1668.851 1056.201 C 1674.472 1063.565 1676.209 1072.756 1673.595 1081.36 L 1650.022 1159.071 L 1600.717 1139.708 Z " fill="rgb(255,183,138)"/><path d=" M 1650.013 1161.047 C 1649.829 1161.047 1649.636 1161.024 1649.443 1160.977 C 1648.259 1160.686 1647.566 1159.604 1647.882 1158.553 L 1671.464 1080.85 C 1673.92 1072.788 1672.298 1064.208 1667.027 1057.314 L 1613.144 986.795 C 1611.048 984.058 1607.47 982.709 1603.83 983.273 C 1600.182 983.83 1597.323 986.167 1596.376 989.367 L 1594.245 996.535 C 1590.333 1009.703 1592.736 1023.874 1600.857 1035.41 L 1611.881 1051.088 C 1622.493 1066.177 1624.79 1084.481 1618.169 1101.295 L 1602.795 1140.359 C 1602.392 1141.394 1601.12 1141.935 1599.98 1141.566 C 1598.831 1141.206 1598.226 1140.076 1598.63 1139.049 L 1613.995 1099.986 C 1620.169 1084.308 1618.038 1067.251 1608.136 1053.189 L 1597.112 1037.512 C 1588.351 1025.05 1585.746 1009.75 1589.974 995.523 L 1592.105 988.355 C 1593.499 983.642 1597.709 980.199 1603.085 979.376 C 1608.434 978.568 1613.714 980.544 1616.792 984.567 L 1670.675 1055.087 C 1676.674 1062.938 1678.515 1072.701 1675.735 1081.877 L 1652.153 1159.589 C 1651.881 1160.467 1650.986 1161.047 1650.013 1161.047 Z " fill="rgb(57,0,117)"/><path d=" M 1634.148 1102.84 L 1619.748 1096.707 C 1624.308 1081.203 1621.528 1064.812 1611.881 1051.088 L 1600.857 1035.41 C 1592.736 1023.874 1590.333 1009.703 1594.245 996.535 L 1596.376 989.367 C 1597.323 986.167 1600.182 983.83 1603.83 983.273 C 1604.383 983.187 1604.926 983.148 1605.461 983.148 C 1608.513 983.148 1611.364 984.473 1613.144 986.795 L 1613.863 987.744 L 1612.539 992.245 C 1608.452 1006.025 1610.96 1020.627 1619.397 1032.705 L 1630.447 1048.382 C 1640.629 1062.843 1642.865 1080.709 1636.49 1096.872 L 1634.148 1102.84 Z " fill="rgb(255,223,202)"/><path d=" M 1619.748 1096.707 L 1617.748 1095.853 L 1617.704 1095.837 C 1621.931 1081.03 1619.213 1065.22 1610.031 1052.131 L 1598.98 1036.453 C 1590.544 1024.431 1588.035 1009.773 1592.113 996.041 L 1594.245 988.889 C 1595.727 983.924 1600.576 981.187 1605.479 981.187 C 1608.855 981.187 1612.249 982.481 1614.6 985.234 L 1613.863 987.744 L 1613.144 986.795 C 1611.364 984.473 1608.513 983.148 1605.461 983.148 C 1604.926 983.148 1604.383 983.187 1603.83 983.273 C 1600.182 983.83 1597.323 986.167 1596.376 989.367 L 1594.245 996.535 C 1590.333 1009.703 1592.736 1023.874 1600.857 1035.41 L 1611.881 1051.088 C 1621.528 1064.812 1624.308 1081.203 1619.748 1096.707 Z " fill="rgb(166,140,193)"/><path d=" M 1650.022 1169.564 C 1649.004 1169.564 1647.97 1169.447 1646.943 1169.196 C 1640.69 1167.682 1636.989 1161.91 1638.682 1156.318 L 1662.265 1078.615 C 1663.984 1072.968 1662.852 1066.953 1659.16 1062.122 L 1605.277 991.602 L 1603.453 998.723 C 1600.217 1009.616 1602.208 1021.333 1608.917 1030.877 L 1619.941 1046.547 C 1632.113 1063.855 1634.744 1084.842 1627.158 1104.126 L 1611.785 1143.19 C 1609.627 1148.656 1602.918 1151.519 1596.814 1149.613 C 1590.701 1147.684 1587.492 1141.692 1589.64 1136.226 L 1605.014 1097.154 C 1610.206 1083.948 1608.408 1069.58 1600.077 1057.722 L 1589.044 1042.053 C 1578.879 1027.591 1575.854 1009.836 1580.765 993.335 L 1582.896 986.167 C 1585.255 978.192 1592.376 972.372 1601.471 970.976 C 1610.574 969.573 1619.458 972.945 1624.659 979.76 L 1678.542 1050.28 C 1686.119 1060.193 1688.443 1072.521 1684.926 1084.112 L 1661.344 1161.816 C 1659.923 1166.49 1655.196 1169.564 1650.022 1169.564 Z " fill="rgb(57,0,117)"/><path d=" M 1540.835 1202.785 C 1515.095 1255.565 1549.632 1333.818 1549.632 1333.818 L 1611.337 1563.454 L 1791.008 1563.454 L 1667.158 1369.47 C 1650.092 1342.742 1639.401 1313.145 1635.753 1282.543 C 1632.026 1251.244 1635.718 1219.741 1645.058 1189.39 C 1651.46 1168.592 1655.731 1146.978 1657.617 1124.462 L 1562.339 1083.885 L 1518.866 1096.143 C 1495.898 1102.613 1481.734 1123.191 1485.611 1144.445 L 1500.634 1226.705 C 1500.634 1226.705 1534.661 1225.481 1542.826 1197.491 L 1552.359 1159.149 L 1540.835 1202.785 Z " fill="rgb(255,183,138)"/><path d=" M 1613.074 1561.477 L 1787.211 1561.477 L 1665.238 1370.45 C 1647.917 1343.323 1637.261 1313.811 1633.552 1282.747 C 1629.938 1252.412 1633.096 1220.831 1642.936 1188.872 C 1649.259 1168.333 1653.416 1147.072 1655.301 1125.662 L 1562.173 1086.002 L 1519.533 1098.025 C 1497.757 1104.158 1484.12 1123.976 1487.794 1144.123 L 1502.484 1224.579 C 1508.921 1223.936 1529.294 1220.556 1538.169 1203.342 C 1538.38 1202.895 1538.59 1202.44 1538.809 1202.001 L 1538.906 1201.828 C 1539.59 1200.322 1540.186 1198.707 1540.695 1196.989 L 1550.202 1158.718 C 1550.465 1157.651 1551.657 1156.985 1552.833 1157.22 C 1554.025 1157.455 1554.78 1158.514 1554.508 1159.581 L 1544.983 1197.915 C 1544.405 1199.899 1543.703 1201.75 1542.905 1203.475 L 1542.861 1203.577 L 1542.817 1203.656 C 1542.73 1203.844 1542.642 1204.032 1542.554 1204.22 C 1518.068 1255.62 1551.342 1332.32 1551.692 1333.088 L 1613.074 1561.477 Z  M 1791.008 1565.43 L 1611.337 1565.43 C 1610.32 1565.43 1609.425 1564.803 1609.189 1563.916 L 1547.492 1334.272 C 1546.264 1331.567 1518.437 1267.439 1533.425 1216.015 C 1519.91 1227.81 1500.976 1228.665 1500.721 1228.673 C 1499.643 1228.626 1498.625 1228.007 1498.45 1227.018 L 1483.436 1144.758 C 1479.401 1122.69 1494.354 1100.982 1518.2 1094.253 L 1561.673 1082.003 C 1562.216 1081.854 1562.787 1081.885 1563.286 1082.105 L 1658.572 1122.674 C 1659.388 1123.027 1659.888 1123.795 1659.818 1124.603 C 1657.967 1146.727 1653.723 1168.702 1647.189 1189.915 C 1637.507 1221.403 1634.394 1252.491 1637.945 1282.332 C 1641.594 1312.855 1652.056 1341.84 1669.079 1368.489 L 1792.929 1562.473 C 1793.315 1563.085 1793.315 1563.838 1792.92 1564.45 C 1792.525 1565.054 1791.798 1565.43 1791.008 1565.43 Z " fill="rgb(57,0,117)"/><path d=" M 1510.517 1213.357 C 1508.141 1201.852 1505.834 1190.331 1503.773 1178.771 L 1499.555 1155.652 L 1497.441 1144.1 L 1497.196 1142.672 L 1497.055 1141.566 C 1496.985 1140.829 1496.81 1140.1 1496.801 1139.363 C 1496.757 1137.881 1496.687 1136.406 1496.871 1134.932 C 1497.748 1123.105 1506.509 1112.024 1518.726 1107.405 C 1519.463 1107.059 1520.278 1106.887 1521.041 1106.605 C 1521.787 1106.354 1522.567 1106.087 1523.707 1105.781 L 1529.952 1104.017 L 1533.74 1102.95 C 1519.831 1112.408 1512.289 1128.211 1515.244 1144.445 L 1526.128 1204.157 C 1523.83 1206.596 1521.103 1208.651 1517.831 1210.306 C 1515.604 1211.506 1513.14 1212.549 1510.517 1213.357 Z " fill="rgb(255,223,202)"/><path d=" M 1622.984 1496.542 L 1605.426 1496.542 L 1591.894 1446.185 C 1586.746 1427.049 1581.589 1407.913 1576.652 1388.731 L 1561.892 1331.182 C 1561.804 1330.822 1561.673 1330.414 1561.524 1330.069 L 1561.366 1329.677 C 1557.437 1320.125 1553.973 1309.443 1551 1299.146 C 1548.158 1288.715 1545.58 1278.222 1544.019 1267.666 C 1542.449 1257.126 1541.318 1246.585 1541.133 1235.998 C 1541.151 1232.281 1541.282 1228.563 1541.546 1224.846 C 1550.859 1222.383 1563.55 1216.705 1570.013 1203.742 C 1545.133 1256.475 1579.265 1333.833 1579.265 1333.833 L 1622.984 1496.542 Z " fill="rgb(255,223,202)"/><path d=" M 1544.413 1204.189 C 1542.168 1214.988 1541.177 1225.442 1541.133 1235.998 C 1541.318 1246.585 1542.449 1257.126 1544.019 1267.666 C 1545.58 1278.222 1548.158 1288.715 1551 1299.146 C 1553.973 1309.443 1557.437 1320.125 1561.366 1329.677 L 1561.524 1330.069 C 1561.673 1330.414 1561.804 1330.822 1561.892 1331.182 L 1576.652 1388.731 C 1581.589 1407.913 1586.746 1427.049 1591.894 1446.185 L 1622.747 1560.999 L 1611.337 1552.96 L 1791.008 1552.96 L 1780.809 1568.661 L 1676.911 1405.921 L 1663.922 1385.578 L 1657.432 1375.406 C 1655.222 1371.916 1652.995 1368.277 1650.934 1364.654 C 1642.646 1350.075 1636.069 1334.719 1631.385 1318.917 C 1621.958 1287.257 1620.248 1254.044 1625.334 1221.811 C 1626.615 1213.749 1628.325 1205.749 1630.456 1197.836 C 1631.473 1193.947 1632.771 1189.79 1633.867 1186.19 C 1634.99 1182.544 1636.034 1178.873 1637.007 1175.195 C 1638.963 1167.831 1640.629 1160.412 1641.997 1152.946 C 1642.69 1149.213 1643.313 1145.464 1643.848 1141.715 C 1644.19 1139.276 1643.962 1137.143 1643.12 1134.94 C 1642.287 1132.791 1640.875 1130.775 1639.033 1129.144 C 1638.103 1128.336 1637.103 1127.583 1635.981 1126.995 C 1635.446 1126.65 1634.858 1126.454 1634.262 1126.14 L 1631.307 1124.878 L 1607.654 1114.808 L 1584.001 1104.738 L 1572.626 1099.931 C 1569.601 1098.793 1566.409 1098.025 1563.155 1097.664 C 1559.901 1097.303 1556.595 1097.35 1553.359 1097.805 C 1551.745 1098.048 1550.131 1098.339 1548.57 1098.786 L 1542.44 1100.503 L 1529.952 1104.017 L 1523.707 1105.781 C 1522.567 1106.087 1521.787 1106.354 1521.041 1106.605 C 1520.278 1106.887 1519.463 1107.059 1518.726 1107.405 C 1506.509 1112.024 1497.748 1123.105 1496.871 1134.932 C 1496.687 1136.406 1496.757 1137.881 1496.801 1139.363 C 1496.81 1140.1 1496.985 1140.829 1497.055 1141.566 L 1497.196 1142.672 L 1497.441 1144.1 L 1499.555 1155.652 L 1503.773 1178.771 C 1506.527 1194.197 1509.702 1209.553 1512.92 1224.909 L 1500.134 1215.576 L 1502.028 1215.341 C 1502.817 1215.2 1503.607 1215.113 1504.413 1214.925 C 1506.01 1214.619 1507.614 1214.219 1509.158 1213.757 C 1512.289 1212.902 1515.218 1211.71 1517.831 1210.306 C 1523.199 1207.585 1527.101 1203.812 1530.031 1198.997 C 1530.758 1197.805 1531.215 1196.535 1531.951 1195.311 L 1533.863 1190.01 C 1535.161 1186.441 1536.582 1182.889 1538.099 1179.359 C 1541.09 1172.278 1544.352 1165.259 1548.535 1158.389 C 1549.605 1156.624 1552.078 1155.973 1554.052 1156.93 C 1555.332 1157.549 1556.086 1158.702 1556.174 1159.91 C 1556.7 1167.737 1556.323 1175.399 1555.657 1183.022 C 1555.35 1186.833 1554.946 1190.629 1554.411 1194.401 C 1554.148 1196.315 1553.929 1198.119 1553.543 1200.111 C 1552.885 1202.432 1552.28 1204.832 1551.324 1207.083 C 1547.588 1216.047 1540.169 1224.368 1531.03 1229.34 C 1526.549 1231.998 1521.69 1233.826 1516.805 1235.245 C 1514.359 1235.959 1511.868 1236.484 1509.342 1236.916 C 1508.097 1237.159 1506.799 1237.3 1505.518 1237.48 C 1504.115 1237.629 1503.08 1237.755 1501.133 1237.825 L 1500.862 1237.833 C 1494.582 1238.068 1489.215 1233.943 1488.347 1228.493 C 1485.926 1213.027 1483.479 1197.562 1480.603 1182.159 L 1476.384 1159.04 L 1474.271 1147.48 L 1474.008 1146.013 L 1473.762 1144.209 C 1473.631 1143.002 1473.403 1141.81 1473.359 1140.594 C 1473.262 1138.171 1473.201 1135.747 1473.455 1133.324 C 1474.236 1123.631 1478.13 1114.196 1484.4 1106.299 C 1490.653 1098.386 1499.388 1092.049 1509.342 1088.159 C 1510.561 1087.626 1511.859 1087.281 1513.122 1086.842 C 1514.42 1086.41 1515.7 1086.01 1516.648 1085.759 L 1522.892 1083.995 L 1535.389 1080.473 L 1541.765 1078.693 C 1544.37 1077.964 1547.044 1077.462 1549.728 1077.062 C 1555.122 1076.309 1560.62 1076.231 1566.031 1076.827 C 1571.443 1077.423 1576.766 1078.701 1581.791 1080.599 C 1584.519 1081.665 1586.123 1082.403 1588.184 1083.265 L 1594.095 1085.783 L 1617.748 1095.853 L 1641.401 1105.922 L 1644.356 1107.185 C 1645.672 1107.805 1647.084 1108.401 1648.355 1109.161 C 1650.986 1110.581 1653.381 1112.322 1655.564 1114.243 C 1659.932 1118.102 1663.299 1122.87 1665.308 1128.093 C 1667.36 1133.269 1667.93 1139.12 1667.132 1144.413 C 1666.562 1148.405 1665.895 1152.389 1665.167 1156.357 C 1663.703 1164.302 1661.931 1172.199 1659.853 1180.034 C 1658.809 1183.947 1657.695 1187.853 1656.512 1191.735 C 1655.31 1195.664 1654.258 1199.028 1653.284 1202.746 C 1651.32 1210.016 1649.759 1217.364 1648.583 1224.76 C 1643.909 1254.342 1645.505 1284.778 1654.073 1313.521 C 1658.336 1327.904 1664.326 1341.88 1671.859 1355.149 C 1673.762 1358.474 1675.727 1361.69 1677.814 1364.999 L 1684.312 1375.171 L 1697.301 1395.514 L 1801.199 1558.246 C 1804.418 1563.281 1802.462 1569.696 1796.823 1572.575 C 1794.999 1573.5 1792.964 1573.947 1791.008 1573.955 L 1611.337 1573.955 C 1605.803 1573.955 1601.164 1570.52 1599.927 1565.908 L 1569.075 1451.086 C 1563.944 1431.951 1558.814 1412.807 1553.473 1393.719 L 1537.371 1336.453 L 1537.906 1337.951 C 1535.354 1332.124 1533.433 1326.798 1531.574 1321.16 C 1529.689 1315.607 1528.066 1309.992 1526.698 1304.314 C 1523.848 1292.982 1521.866 1281.453 1520.936 1269.76 C 1520.191 1258.059 1520.577 1246.185 1522.944 1234.484 C 1525.488 1222.815 1529.934 1211.286 1537.248 1201.389 C 1538.45 1199.75 1540.914 1199.303 1542.747 1200.385 C 1544.115 1201.193 1544.738 1202.628 1544.457 1203.993 L 1544.413 1204.189 Z " fill="rgb(57,0,117)"/><path d=" M 1866.746 2100.853 L 833.254 2100.853 C 777.626 2100.853 732.531 2060.527 732.531 2010.782 L 1967.469 2010.782 C 1967.469 2060.527 1922.374 2100.853 1866.746 2100.853 Z " fill="rgb(184,197,211)"/><path d=" M 734.504 2012.531 C 735.556 2060.425 779.45 2099.104 833.254 2099.104 L 1866.746 2099.104 C 1920.559 2099.104 1964.444 2060.425 1965.496 2012.531 L 734.504 2012.531 Z  M 1866.746 2102.602 L 833.254 2102.602 C 776.635 2102.602 730.575 2061.413 730.575 2010.782 L 730.575 2009.033 L 1969.425 2009.033 L 1969.425 2010.782 C 1969.425 2061.413 1923.365 2102.602 1866.746 2102.602 Z " fill="rgb(57,0,117)"/><path d=" M 1951.859 2034.019 L 1894.792 2034.019 L 1896.739 2021.283 L 1954.963 2021.283 C 1954.314 2025.652 1953.271 2029.91 1951.859 2034.019 Z  M 808.058 2034.019 L 748.132 2034.019 C 746.729 2029.91 745.686 2025.652 745.037 2021.283 L 806.102 2021.283 L 808.058 2034.019 Z " fill="rgb(241,243,246)"/><path d=" M 745.037 2021.283 C 750.799 2060.213 788.159 2090.36 833.254 2090.36 L 1866.746 2090.36 C 1911.833 2090.36 1949.201 2060.213 1954.963 2021.283 L 745.037 2021.283 Z  M 1866.746 2111.346 L 833.254 2111.346 C 771.241 2111.346 720.788 2066.236 720.788 2010.782 C 720.788 2004.987 726.041 2000.289 732.531 2000.289 L 1967.469 2000.289 C 1973.95 2000.289 1979.212 2004.987 1979.212 2010.782 C 1979.212 2066.236 1928.759 2111.346 1866.746 2111.346 Z " fill="rgb(57,0,117)"/><path d=" M 884.822 2100.853 L 1818.02 2100.853 C 1849.469 2100.853 1875.954 2081.365 1879.655 2055.5 L 1954.823 1564.497 C 1959.199 1533.927 1930.364 1507.043 1893.187 1507.043 L 809.654 1507.043 C 772.478 1507.043 743.642 1533.927 748.018 1564.497 L 823.195 2055.5 C 826.896 2081.365 853.372 2100.853 884.822 2100.853 Z " fill="rgb(199,211,227)"/><path d=" M 809.654 1508.792 C 791.483 1508.792 774.478 1515.481 763.006 1527.135 C 752.667 1537.636 748.036 1550.827 749.965 1564.277 L 825.133 2055.265 C 828.711 2080.267 854.372 2099.104 884.83 2099.104 L 1818.02 2099.104 C 1848.469 2099.104 1874.139 2080.267 1877.717 2055.273 L 1952.885 1564.262 C 1954.806 1550.827 1950.184 1537.636 1939.844 1527.135 C 1928.373 1515.481 1911.368 1508.792 1893.187 1508.792 L 809.654 1508.792 Z  M 1818.02 2102.602 L 884.83 2102.602 C 852.408 2102.602 825.08 2082.447 821.248 2055.72 L 746.08 1564.74 C 744.011 1550.255 748.974 1536.091 760.068 1524.829 C 772.285 1512.415 790.36 1505.294 809.654 1505.294 L 1893.187 1505.294 C 1912.49 1505.294 1930.565 1512.415 1942.782 1524.829 C 1953.867 1536.091 1958.84 1550.255 1956.761 1564.724 L 1881.594 2055.735 C 1877.77 2082.447 1850.434 2102.602 1818.02 2102.602 Z " fill="rgb(57,0,117)"/><path d=" M 860.958 2015.213 C 850.154 2013.927 839.235 2012.555 828.246 2011.119 L 759.665 1563.164 C 758.104 1552.247 761.893 1541.503 770.347 1532.915 C 779.968 1523.143 794.289 1517.536 809.654 1517.536 L 1812.547 1517.536 C 1811.127 1528.312 1809.522 1538.969 1807.759 1549.376 L 855.126 1549.376 C 821.169 1549.376 794.824 1574.441 798.823 1602.956 L 860.958 2015.213 Z " fill="rgb(244,246,249)"/><path d=" M 923.804 2100.853 L 1779.046 2100.853 C 1807.776 2100.853 1831.964 2082.682 1835.349 2058.559 L 1904.027 1602.956 C 1908.026 1574.441 1881.681 1549.376 1847.715 1549.376 L 855.126 1549.376 C 821.169 1549.376 794.824 1574.441 798.823 1602.956 L 867.492 2058.559 C 870.877 2082.682 895.065 2100.853 923.804 2100.853 Z " fill="rgb(184,197,211)"/><path d=" M 809.654 1517.536 C 794.289 1517.536 779.968 1523.143 770.347 1532.915 C 761.893 1541.503 758.104 1552.247 759.665 1563.164 L 834.824 2054.073 C 837.788 2074.8 859.283 2090.36 884.83 2090.36 L 1818.02 2090.36 C 1843.567 2090.36 1865.062 2074.8 1868.009 2054.167 L 1943.194 1563.077 C 1944.746 1552.247 1940.949 1541.503 1932.503 1532.915 C 1922.883 1523.143 1908.553 1517.536 1893.187 1517.536 L 809.654 1517.536 Z  M 1818.02 2111.346 L 884.83 2111.346 C 847.505 2111.346 815.995 2087.913 811.548 2056.833 L 736.389 1565.924 C 733.943 1548.843 739.748 1532.225 752.719 1519.042 C 766.795 1504.745 787.545 1496.542 809.654 1496.542 L 1893.187 1496.542 C 1915.297 1496.542 1936.046 1504.745 1950.122 1519.042 C 1963.093 1532.225 1968.899 1548.843 1966.47 1565.83 L 1891.284 2056.92 C 1886.847 2087.913 1855.345 2111.346 1818.02 2111.346 Z " fill="rgb(57,0,117)"/><path d=" M 1818.02 2090.36 L 1814.45 2090.36 C 1825.729 2082.729 1833.534 2071.499 1835.349 2058.559 L 1904.027 1602.956 C 1908.026 1574.441 1881.681 1549.376 1847.715 1549.376 L 1807.759 1549.376 C 1809.522 1538.969 1811.127 1528.312 1812.547 1517.536 L 1893.187 1517.536 C 1908.553 1517.536 1922.883 1523.143 1932.503 1532.915 C 1940.949 1541.503 1944.746 1552.247 1943.194 1563.077 L 1868.009 2054.167 C 1865.062 2074.8 1843.567 2090.36 1818.02 2090.36 Z  M 888.391 2090.36 L 884.83 2090.36 C 859.283 2090.36 837.788 2074.8 834.824 2054.073 L 828.246 2011.119 C 839.235 2012.555 850.154 2013.927 860.958 2015.213 L 867.492 2058.559 C 869.308 2071.499 877.113 2082.729 888.391 2090.36 Z " fill="rgb(188,172,209)"/><path d=" M 1814.45 2090.36 L 888.391 2090.36 C 877.113 2082.729 869.308 2071.499 867.492 2058.559 L 860.958 2015.213 C 952.263 2026.13 1037.139 2031.737 1115.648 2031.737 C 1517.481 2031.737 1750.938 1884.745 1807.759 1549.376 L 1847.715 1549.376 C 1881.681 1549.376 1908.026 1574.441 1904.027 1602.956 L 1835.349 2058.559 C 1833.534 2071.499 1825.729 2082.729 1814.45 2090.36 Z " fill="rgb(146,138,183)"/><path d=" M 1818.02 2100.853 L 884.83 2100.853 C 853.364 2100.853 826.905 2081.365 823.195 2055.5 L 816.626 2009.606 L 816.626 2009.574 C 820.511 2010.092 824.388 2010.61 828.246 2011.119 L 834.824 2054.073 C 837.788 2074.8 859.283 2090.36 884.83 2090.36 L 888.391 2090.36 L 1814.45 2090.36 L 1818.02 2090.36 C 1843.567 2090.36 1865.062 2074.8 1868.009 2054.167 L 1943.194 1563.077 C 1944.746 1552.247 1940.949 1541.503 1932.503 1532.915 C 1922.883 1523.143 1908.553 1517.536 1893.187 1517.536 L 1812.547 1517.536 C 1813.012 1514.046 1813.451 1510.572 1813.872 1507.043 L 1893.214 1507.043 C 1930.381 1507.043 1959.217 1533.911 1954.841 1564.505 L 1879.647 2055.5 C 1875.937 2081.365 1849.478 2100.853 1818.02 2100.853 Z " fill="rgb(57,0,117)"/><path d=" M 1420.072 1837.8 C 1411.302 1862.284 1383.922 1880.157 1351.473 1880.157 C 1311.947 1880.157 1279.928 1853.618 1279.928 1820.9 C 1279.928 1788.188 1311.947 1761.696 1351.473 1761.696 C 1354.788 1761.696 1358.06 1761.893 1361.269 1762.285 C 1355.06 1770.025 1351.473 1779.326 1351.473 1789.255 C 1351.473 1816.421 1378.038 1838.427 1410.811 1838.427 C 1413.977 1838.427 1417.073 1838.239 1420.072 1837.8 Z " fill="rgb(57,0,117)"/><path d=" M 1382.449 1832.444 C 1365.076 1824.609 1352.964 1809.779 1351.596 1792.518 C 1351.596 1792.51 1351.596 1792.494 1351.596 1792.486 C 1351.596 1792.423 1351.587 1792.368 1351.579 1792.306 C 1351.579 1792.298 1351.579 1792.298 1351.579 1792.29 C 1351.579 1792.259 1351.579 1792.235 1351.579 1792.204 C 1351.579 1792.188 1351.57 1792.172 1351.57 1792.157 C 1351.57 1792.102 1351.561 1792.055 1351.561 1792 C 1351.561 1791.984 1351.561 1791.976 1351.561 1791.969 C 1351.561 1791.945 1351.552 1791.921 1351.552 1791.89 C 1351.552 1791.874 1351.552 1791.851 1351.552 1791.835 C 1351.552 1791.812 1351.544 1791.788 1351.544 1791.765 C 1351.544 1791.725 1351.544 1791.694 1351.544 1791.663 C 1351.535 1791.639 1351.535 1791.608 1351.535 1791.584 C 1351.535 1791.561 1351.535 1791.537 1351.535 1791.506 C 1351.535 1791.49 1351.526 1791.467 1351.526 1791.443 C 1351.526 1791.412 1351.526 1791.38 1351.526 1791.357 C 1351.526 1791.325 1351.517 1791.302 1351.517 1791.278 C 1351.517 1791.247 1351.517 1791.216 1351.517 1791.184 C 1351.517 1791.169 1351.517 1791.153 1351.517 1791.129 C 1351.508 1791.098 1351.508 1791.067 1351.508 1791.035 C 1351.508 1791.012 1351.508 1790.996 1351.508 1790.973 C 1351.508 1790.933 1351.5 1790.902 1351.5 1790.863 C 1351.5 1790.847 1351.5 1790.831 1351.5 1790.816 C 1351.5 1790.776 1351.5 1790.745 1351.5 1790.706 C 1351.5 1790.698 1351.491 1790.69 1351.491 1790.675 C 1351.491 1790.627 1351.491 1790.588 1351.491 1790.541 C 1351.491 1790.526 1351.491 1790.518 1351.491 1790.502 C 1351.491 1790.463 1351.491 1790.424 1351.482 1790.392 C 1351.482 1790.377 1351.482 1790.369 1351.482 1790.361 C 1351.482 1790.314 1351.482 1790.267 1351.482 1790.22 C 1351.482 1790.212 1351.482 1790.196 1351.482 1790.188 C 1351.482 1790.149 1351.482 1790.11 1351.482 1790.078 C 1351.482 1790.063 1351.482 1790.047 1351.482 1790.039 C 1351.473 1789.992 1351.473 1789.945 1351.473 1789.898 C 1351.473 1789.89 1351.473 1789.882 1351.473 1789.875 C 1351.473 1789.835 1351.473 1789.796 1351.473 1789.757 C 1351.473 1789.741 1351.473 1789.733 1351.473 1789.718 C 1351.473 1789.671 1351.473 1789.624 1351.473 1789.577 C 1351.473 1789.569 1351.473 1789.569 1351.473 1789.561 C 1351.473 1789.522 1351.473 1789.475 1351.473 1789.435 C 1351.473 1789.42 1351.473 1789.412 1351.473 1789.396 C 1351.473 1789.349 1351.473 1789.302 1351.473 1789.255 L 1351.473 1789.255 C 1351.473 1789.224 1351.473 1789.184 1351.473 1789.153 C 1351.473 1789.137 1351.473 1789.122 1351.473 1789.106 C 1351.473 1789.082 1351.473 1789.059 1351.473 1789.043 C 1351.473 1789.028 1351.473 1789.004 1351.473 1788.988 C 1351.473 1788.973 1351.473 1788.957 1351.473 1788.941 C 1351.473 1788.918 1351.473 1788.894 1351.473 1788.871 C 1351.473 1788.863 1351.473 1788.855 1351.473 1788.847 C 1351.473 1788.816 1351.473 1788.792 1351.473 1788.761 C 1351.473 1788.761 1351.473 1788.761 1351.473 1788.761 C 1351.57 1780.518 1354.175 1772.715 1358.709 1765.884 L 1359.2 1765.884 C 1362.524 1765.884 1365.786 1766.08 1369.005 1766.473 C 1362.795 1774.213 1359.2 1783.514 1359.2 1793.443 C 1359.2 1809.363 1368.294 1823.48 1382.449 1832.444 Z " fill="rgb(241,243,246)"/><path d=" M 1351.596 1792.518 C 1351.596 1792.51 1351.596 1792.494 1351.596 1792.486 C 1351.596 1792.494 1351.596 1792.51 1351.596 1792.518 Z  M 1351.579 1792.306 C 1351.579 1792.298 1351.579 1792.298 1351.579 1792.29 C 1351.579 1792.298 1351.579 1792.298 1351.579 1792.306 Z  M 1351.579 1792.204 C 1351.579 1792.188 1351.57 1792.172 1351.57 1792.157 C 1351.57 1792.172 1351.579 1792.188 1351.579 1792.204 Z  M 1351.561 1792 C 1351.561 1791.992 1351.561 1791.976 1351.561 1791.969 C 1351.561 1791.976 1351.561 1791.984 1351.561 1792 Z  M 1351.552 1791.89 C 1351.552 1791.874 1351.552 1791.851 1351.552 1791.835 C 1351.552 1791.851 1351.552 1791.874 1351.552 1791.89 Z  M 1351.544 1791.765 C 1351.544 1791.725 1351.544 1791.694 1351.544 1791.663 C 1351.544 1791.694 1351.544 1791.725 1351.544 1791.765 Z  M 1351.535 1791.584 C 1351.535 1791.561 1351.535 1791.537 1351.535 1791.506 C 1351.535 1791.537 1351.535 1791.561 1351.535 1791.584 Z  M 1351.526 1791.443 C 1351.526 1791.412 1351.526 1791.38 1351.526 1791.357 C 1351.526 1791.38 1351.526 1791.412 1351.526 1791.443 Z  M 1351.517 1791.278 C 1351.517 1791.247 1351.517 1791.216 1351.517 1791.184 C 1351.517 1791.216 1351.517 1791.247 1351.517 1791.278 Z  M 1351.517 1791.129 C 1351.508 1791.098 1351.508 1791.067 1351.508 1791.035 C 1351.508 1791.067 1351.508 1791.098 1351.517 1791.129 Z  M 1351.508 1790.973 C 1351.508 1790.933 1351.5 1790.902 1351.5 1790.863 C 1351.5 1790.902 1351.508 1790.933 1351.508 1790.973 Z  M 1351.5 1790.816 C 1351.5 1790.776 1351.5 1790.745 1351.5 1790.706 C 1351.5 1790.745 1351.5 1790.776 1351.5 1790.816 Z  M 1351.491 1790.675 C 1351.491 1790.635 1351.491 1790.588 1351.491 1790.541 C 1351.491 1790.588 1351.491 1790.627 1351.491 1790.675 Z  M 1351.491 1790.502 C 1351.491 1790.463 1351.491 1790.431 1351.482 1790.392 C 1351.491 1790.424 1351.491 1790.463 1351.491 1790.502 Z  M 1351.482 1790.361 C 1351.482 1790.314 1351.482 1790.267 1351.482 1790.22 C 1351.482 1790.267 1351.482 1790.314 1351.482 1790.361 Z  M 1351.482 1790.188 C 1351.482 1790.149 1351.482 1790.11 1351.482 1790.078 C 1351.482 1790.11 1351.482 1790.149 1351.482 1790.188 Z  M 1351.482 1790.039 C 1351.473 1789.992 1351.473 1789.945 1351.473 1789.898 C 1351.473 1789.945 1351.473 1789.992 1351.482 1790.039 Z  M 1351.473 1789.875 C 1351.473 1789.835 1351.473 1789.796 1351.473 1789.757 C 1351.473 1789.796 1351.473 1789.835 1351.473 1789.875 Z  M 1351.473 1789.718 C 1351.473 1789.671 1351.473 1789.624 1351.473 1789.577 C 1351.473 1789.624 1351.473 1789.671 1351.473 1789.718 Z  M 1351.473 1789.561 C 1351.473 1789.522 1351.473 1789.475 1351.473 1789.435 C 1351.473 1789.475 1351.473 1789.522 1351.473 1789.561 Z  M 1351.473 1789.396 C 1351.473 1789.349 1351.473 1789.302 1351.473 1789.255 L 1351.473 1789.255 C 1351.473 1789.302 1351.473 1789.349 1351.473 1789.396 Z  M 1351.473 1789.255 C 1351.473 1789.224 1351.473 1789.184 1351.473 1789.153 C 1351.473 1789.184 1351.473 1789.224 1351.473 1789.255 Z  M 1351.473 1789.106 C 1351.473 1789.082 1351.473 1789.059 1351.473 1789.043 C 1351.473 1789.059 1351.473 1789.082 1351.473 1789.106 Z  M 1351.473 1788.988 C 1351.473 1788.973 1351.473 1788.957 1351.473 1788.941 C 1351.473 1788.957 1351.473 1788.973 1351.473 1788.988 Z  M 1351.473 1788.871 C 1351.473 1788.863 1351.473 1788.855 1351.473 1788.847 C 1351.473 1788.855 1351.473 1788.863 1351.473 1788.871 Z  M 1351.473 1788.761 L 1351.473 1788.761 C 1351.473 1788.761 1351.473 1788.761 1351.473 1788.761 Z " fill="rgb(215,204,227)"/><path d=" M 1359.2 1884.345 C 1343.151 1884.345 1328.356 1879.969 1316.437 1872.582 C 1326.496 1877.264 1338.064 1879.993 1350.386 1880.15 C 1350.421 1880.15 1350.447 1880.15 1350.474 1880.15 C 1350.509 1880.15 1350.544 1880.15 1350.579 1880.15 C 1350.631 1880.15 1350.693 1880.15 1350.745 1880.15 C 1350.772 1880.15 1350.789 1880.15 1350.816 1880.15 C 1350.868 1880.15 1350.921 1880.15 1350.973 1880.15 C 1350.991 1880.15 1351 1880.15 1351.017 1880.15 C 1351.087 1880.157 1351.149 1880.157 1351.21 1880.157 C 1351.228 1880.157 1351.245 1880.157 1351.272 1880.157 C 1351.333 1880.157 1351.403 1880.157 1351.473 1880.157 C 1351.535 1880.157 1351.596 1880.157 1351.658 1880.157 C 1351.675 1880.157 1351.693 1880.157 1351.71 1880.157 C 1351.754 1880.157 1351.798 1880.157 1351.842 1880.157 C 1351.859 1880.157 1351.894 1880.157 1351.921 1880.15 C 1351.956 1880.15 1351.991 1880.15 1352.017 1880.15 C 1352.052 1880.15 1352.078 1880.15 1352.105 1880.15 C 1352.14 1880.15 1352.166 1880.15 1352.201 1880.15 C 1352.236 1880.15 1352.263 1880.15 1352.298 1880.15 C 1352.324 1880.15 1352.359 1880.15 1352.385 1880.15 C 1352.412 1880.15 1352.447 1880.15 1352.482 1880.15 C 1352.508 1880.15 1352.535 1880.15 1352.561 1880.15 C 1352.596 1880.15 1352.64 1880.15 1352.666 1880.15 C 1352.692 1880.15 1352.719 1880.15 1352.745 1880.142 C 1352.78 1880.142 1352.815 1880.142 1352.85 1880.142 C 1352.877 1880.142 1352.894 1880.142 1352.92 1880.142 C 1352.964 1880.142 1352.999 1880.142 1353.043 1880.142 C 1353.061 1880.142 1353.07 1880.142 1353.087 1880.142 C 1353.14 1880.142 1353.184 1880.142 1353.227 1880.134 C 1353.236 1880.134 1353.245 1880.134 1353.254 1880.134 C 1382.765 1879.538 1407.829 1864.167 1418.064 1842.615 L 1418.546 1842.615 C 1421.704 1842.615 1424.808 1842.419 1427.799 1841.988 C 1419.037 1866.472 1391.649 1884.345 1359.2 1884.345 Z " fill="rgb(241,243,246)"/><path d=" M 1351.658 1880.157 C 1351.675 1880.157 1351.693 1880.157 1351.71 1880.157 C 1351.693 1880.157 1351.675 1880.157 1351.658 1880.157 Z  M 1351.272 1880.157 C 1351.245 1880.157 1351.228 1880.157 1351.21 1880.157 C 1351.228 1880.157 1351.245 1880.157 1351.272 1880.157 Z  M 1351.842 1880.157 C 1351.868 1880.157 1351.894 1880.157 1351.921 1880.15 C 1351.894 1880.157 1351.859 1880.157 1351.842 1880.157 Z  M 1351.017 1880.15 C 1351 1880.15 1350.991 1880.15 1350.973 1880.15 C 1350.991 1880.15 1351 1880.15 1351.017 1880.15 Z  M 1352.017 1880.15 C 1352.052 1880.15 1352.078 1880.15 1352.105 1880.15 C 1352.078 1880.15 1352.052 1880.15 1352.017 1880.15 Z  M 1350.816 1880.15 C 1350.789 1880.15 1350.772 1880.15 1350.745 1880.15 C 1350.772 1880.15 1350.789 1880.15 1350.816 1880.15 Z  M 1352.201 1880.15 C 1352.236 1880.15 1352.263 1880.15 1352.298 1880.15 C 1352.263 1880.15 1352.236 1880.15 1352.201 1880.15 Z  M 1350.579 1880.15 C 1350.544 1880.15 1350.509 1880.15 1350.474 1880.15 C 1350.509 1880.15 1350.544 1880.15 1350.579 1880.15 Z  M 1352.385 1880.15 C 1352.421 1880.15 1352.447 1880.15 1352.482 1880.15 C 1352.447 1880.15 1352.412 1880.15 1352.385 1880.15 Z  M 1350.386 1880.15 C 1338.064 1879.993 1326.496 1877.264 1316.437 1872.582 C 1316.428 1872.574 1316.42 1872.566 1316.411 1872.558 C 1326.461 1877.24 1338.055 1879.993 1350.386 1880.15 Z  M 1352.561 1880.15 C 1352.596 1880.15 1352.631 1880.15 1352.666 1880.15 C 1352.64 1880.15 1352.596 1880.15 1352.561 1880.15 Z  M 1352.745 1880.142 C 1352.78 1880.142 1352.815 1880.142 1352.85 1880.142 C 1352.815 1880.142 1352.78 1880.142 1352.745 1880.142 Z  M 1352.92 1880.142 C 1352.964 1880.142 1352.999 1880.142 1353.043 1880.142 C 1352.999 1880.142 1352.964 1880.142 1352.92 1880.142 Z  M 1353.087 1880.142 C 1353.131 1880.142 1353.184 1880.142 1353.227 1880.134 C 1353.184 1880.142 1353.14 1880.142 1353.087 1880.142 Z  M 1353.254 1880.134 C 1382.756 1879.538 1407.812 1864.143 1418.055 1842.615 L 1418.064 1842.615 C 1407.829 1864.167 1382.765 1879.538 1353.254 1880.134 Z " fill="rgb(215,204,227)"/><path d=" M 1171.688 657.504 C 1167.742 657.504 1163.927 656.571 1160.27 654.579 C 1137.143 642.007 1140.958 598.615 1168.794 557.653 C 1191.482 524.275 1223.116 502.811 1246.567 502.811 C 1251.89 502.811 1256.792 503.924 1261.072 506.246 C 1284.199 518.817 1268.36 555.677 1240.524 596.638 C 1217.099 631.114 1192.631 657.504 1171.688 657.504 Z " fill="rgb(150,85,78)"/><path d=" M 1153.596 807.115 C 1144.721 807.115 1135.819 806.778 1126.926 806.088 L 1126.909 806.088 C 1126.602 806.064 1126.286 806.049 1125.97 806.049 L 1125.655 806.025 C 1101.037 804.041 1079.296 793.869 1063.467 778.639 C 1089.961 785.799 1115.517 789.775 1139.906 789.775 C 1214.126 789.775 1277.56 753.01 1323.813 657.52 C 1347.992 595.595 1375.556 571.621 1405.242 571.621 C 1418.853 571.621 1432.903 576.663 1447.277 585.392 C 1445.996 586.945 1445.181 588.835 1445.023 590.882 C 1440.594 647.238 1409.162 700.442 1356.516 740.697 C 1300.511 783.525 1227.781 807.115 1153.596 807.115 Z " fill="rgb(114,46,76)"/><path d=" M 1153.289 817.585 C 1144.186 817.585 1135.065 817.24 1125.9 816.534 C 1125.83 816.534 1125.76 816.511 1125.672 816.511 C 1125.628 816.511 1125.576 816.518 1125.523 816.534 C 1125.251 816.534 1124.927 816.487 1124.593 816.487 C 1122.471 816.291 1120.349 816.095 1118.279 815.805 C 1077.718 792.434 1043.524 772.718 1043.524 772.718 C 1050.233 774.883 1056.88 776.859 1063.467 778.639 C 1079.296 793.869 1101.037 804.041 1125.655 806.025 L 1125.97 806.049 C 1126.286 806.049 1126.602 806.064 1126.909 806.088 L 1126.926 806.088 C 1135.819 806.778 1144.721 807.115 1153.596 807.115 C 1227.781 807.115 1300.511 783.525 1356.516 740.697 C 1409.162 700.442 1440.594 647.238 1445.023 590.882 C 1445.181 588.835 1445.996 586.945 1447.277 585.392 C 1450.408 587.29 1453.556 589.36 1456.713 591.595 C 1446.593 720.393 1305.948 817.569 1153.289 817.585 Z " fill="rgb(57,0,117)"/><path d=" M 1645.944 788.834 C 1564.576 754.202 1513.771 699.924 1474.516 605.03 C 1538.187 651.646 1590.64 674.31 1626.886 674.31 C 1681.506 674.31 1699.335 622.879 1663.422 524.495 C 1692.293 566.115 1710 609.265 1717.121 654.971 C 1708.404 716.283 1687.636 757.488 1651.846 784.584 C 1649.925 786.042 1647.961 787.446 1645.944 788.834 Z " fill="rgb(114,46,76)"/><path d=" M 1647.268 800.951 C 1549.272 761.174 1496.617 696.277 1456.713 591.595 C 1462.738 596.277 1468.676 600.756 1474.516 605.03 C 1513.771 699.924 1564.576 754.202 1645.944 788.834 C 1647.961 787.446 1649.925 786.042 1651.846 784.584 C 1687.636 757.488 1708.404 716.283 1717.121 654.971 C 1710 609.265 1692.293 566.115 1663.422 524.495 C 1658.906 512.112 1653.53 498.991 1647.268 485.118 C 1690.118 535.216 1719.191 590.38 1728.943 654.892 C 1719.848 720.62 1696.704 769.989 1647.268 800.951 Z " fill="rgb(57,0,117)"/><path d=" M 1305.247 869.173 C 1301.318 869.314 1298.266 869.165 1294.872 868.977 C 1291.565 868.789 1288.303 868.498 1285.058 868.13 C 1278.568 867.385 1272.166 866.279 1265.913 864.82 C 1259.651 863.346 1253.556 861.362 1247.777 859.009 C 1241.997 856.594 1236.621 853.551 1231.824 850.147 C 1243.559 853.598 1255.512 854.013 1267.08 852.955 C 1272.877 852.39 1278.586 851.488 1284.181 850.28 C 1286.979 849.676 1289.741 849.002 1292.451 848.249 C 1295.073 847.52 1298.029 846.641 1300.046 845.81 C 1306.904 842.995 1315.025 845.685 1318.174 851.817 C 1321.331 857.95 1318.323 865.212 1311.456 868.028 C 1309.807 868.71 1308.071 869.071 1306.352 869.142 L 1305.247 869.173 Z " fill="rgb(57,0,117)"/><path d=" M 1270.974 892.128 C 1272.368 917.255 1289.557 936.916 1309.369 936.038 C 1329.18 935.16 1344.115 914.079 1342.721 888.96 C 1341.335 863.832 1324.146 844.171 1304.335 845.049 C 1284.523 845.928 1269.588 867.001 1270.974 892.128 Z " fill="rgb(57,0,117)"/><path d=" M 1272.929 892.042 C 1274.236 915.655 1289.89 934.313 1308.088 934.313 C 1308.483 934.313 1308.877 934.305 1309.263 934.289 C 1318.2 933.897 1326.391 929.05 1332.346 920.651 C 1338.432 912.064 1341.414 900.833 1340.765 889.038 C 1340.116 877.251 1335.898 866.342 1328.891 858.327 C 1322.05 850.5 1313.438 846.336 1304.431 846.798 C 1285.725 847.622 1271.596 867.918 1272.929 892.042 Z  M 1308.106 937.81 C 1287.829 937.81 1270.43 917.694 1269.027 892.214 C 1267.588 866.169 1283.383 844.226 1304.238 843.301 C 1314.631 842.877 1324.33 847.426 1331.978 856.178 C 1339.476 864.75 1343.984 876.357 1344.677 888.865 C 1345.369 901.374 1342.16 913.334 1335.644 922.525 C 1328.996 931.913 1319.7 937.332 1309.465 937.787 C 1309.009 937.803 1308.553 937.81 1308.106 937.81 Z " fill="rgb(57,0,117)"/><path d=" M 1303.826 878.78 C 1304.229 886.097 1309.228 891.822 1314.999 891.563 C 1320.77 891.312 1325.111 885.172 1324.707 877.855 C 1324.304 870.545 1319.305 864.82 1313.534 865.079 C 1307.764 865.33 1303.414 871.471 1303.826 878.78 Z " fill="rgb(255,255,255)"/><path d=" M 1541.116 815.154 C 1543.054 815.875 1545.931 816.612 1548.465 817.209 C 1551.087 817.836 1553.771 818.377 1556.481 818.848 C 1561.901 819.789 1567.417 820.408 1573.004 820.698 C 1584.159 821.2 1595.613 820.189 1606.645 816.205 C 1602.295 819.765 1597.367 823.035 1591.973 825.678 C 1586.571 828.274 1580.826 830.525 1574.88 832.258 C 1568.943 833.984 1562.83 835.356 1556.604 836.368 C 1553.49 836.87 1550.351 837.301 1547.167 837.623 C 1543.887 837.944 1540.967 838.219 1537.125 838.242 L 1535.994 838.242 C 1528.575 838.281 1522.523 832.933 1522.48 826.298 C 1522.445 819.663 1528.426 814.252 1535.845 814.213 C 1537.687 814.205 1539.511 814.558 1541.116 815.154 Z " fill="rgb(57,0,117)"/><path d=" M 1571.328 859.95 C 1571.328 885.148 1555.893 905.586 1536.845 905.586 C 1517.796 905.586 1502.361 885.148 1502.361 859.95 C 1502.361 834.744 1517.796 814.315 1536.845 814.315 C 1555.893 814.315 1571.328 834.744 1571.328 859.95 Z " fill="rgb(57,0,117)"/><path d=" M 1536.845 816.064 C 1518.91 816.064 1504.317 835.756 1504.317 859.95 C 1504.317 884.144 1518.91 903.829 1536.845 903.829 C 1554.788 903.829 1569.373 884.144 1569.373 859.95 C 1569.373 835.756 1554.788 816.064 1536.845 816.064 Z  M 1536.845 907.335 C 1516.753 907.335 1500.406 886.074 1500.406 859.95 C 1500.406 833.827 1516.753 812.566 1536.845 812.566 C 1556.937 812.566 1573.284 833.827 1573.284 859.95 C 1573.284 886.074 1556.937 907.335 1536.845 907.335 Z " fill="rgb(57,0,117)"/><path d=" M 1539.125 848.045 C 1539.125 855.386 1534.626 861.33 1529.083 861.33 C 1523.541 861.33 1519.042 855.386 1519.042 848.045 C 1519.042 840.712 1523.541 834.76 1529.083 834.76 C 1534.626 834.76 1539.125 840.712 1539.125 848.045 Z " fill="rgb(255,255,255)"/><path d=" M 1437.323 2279.396 C 657.705 2279.396 25.73 2252.386 25.73 2219.048 C 25.73 2210.844 64.185 2203.002 133.798 2195.865 L 328.52 2195.865 C 338.193 2201.174 349.565 2204.241 361.722 2204.241 L 2348.447 2204.241 C 2360.602 2204.241 2371.968 2201.174 2381.641 2195.865 L 2566.206 2195.865 C 2635.814 2203.002 2674.27 2210.844 2674.27 2219.048 C 2674.27 2252.386 2216.897 2279.396 1437.323 2279.396 Z " fill="rgb(195,178,213)"/><path d=" M 2348.447 2204.241 L 361.722 2204.241 C 349.565 2204.241 338.193 2201.174 328.52 2195.865 L 2381.641 2195.865 C 2371.968 2201.174 2360.602 2204.241 2348.447 2204.241 Z " fill="rgb(57,0,117)"/><path d=" M 153.679 2191.544 C 203.526 2184.839 253.373 2183.231 303.221 2182.407 C 353.066 2181.474 402.913 2181.968 452.761 2182.478 C 502.608 2182.87 552.456 2182.972 602.296 2182.909 L 751.842 2182.909 L 1350 2182.909 L 1948.158 2182.909 L 2247.241 2182.909 L 2322.005 2182.878 L 2359.392 2182.572 L 2396.778 2182.031 C 2446.627 2181.882 2496.476 2182.266 2546.324 2191.544 C 2548.991 2192.038 2550.701 2194.375 2550.148 2196.759 C 2549.736 2198.524 2548.184 2199.826 2546.324 2200.178 C 2496.476 2209.448 2446.627 2209.833 2396.778 2209.684 L 2359.392 2209.142 L 2322.005 2208.837 L 2247.241 2208.813 L 1948.158 2208.813 L 1350 2208.813 L 751.842 2208.813 L 602.296 2208.813 C 552.456 2208.75 502.608 2208.844 452.761 2209.244 C 402.913 2209.746 353.066 2210.24 303.221 2209.307 C 253.373 2208.484 203.526 2206.884 153.679 2200.178 C 151.013 2199.818 149.177 2197.59 149.579 2195.206 C 149.904 2193.269 151.619 2191.818 153.679 2191.544 Z " fill="rgb(57,0,117)"/></g></g></svg>